ISO-10303-21;
HEADER;
/* Generated by software containing ST-Developer
 * from STEP Tools, Inc. (www.steptools.com) 
 */
/* OPTION: using custom renumber hook */

FILE_DESCRIPTION(
/* description */ ('STEP AP242 Edition 2',
'CAx-IF Rec.Pracs.---Representation and Presentation of Product Manufa
cturing Information (PMI)---4.0---2014-10-13',
'CAx-IF Rec.Pracs.---3D Tessellated Geometry---0.4---2014-09-14','2;1',
'CAx-IF Rec.Pracs.---User Defined Attributes---1.5---2016-08-15'),
/* implementation_level */ '2;1');

FILE_NAME(
/* name */ 'Assembly 1 - Part 2',
/* time_stamp */ '2026-06-15T15:23:23Z',
/* author */ (''),
/* organization */ (''),
/* preprocessor_version */ 'ST-DEVELOPER v20',
/* originating_system */ 'ONSHAPE BY PTC INC, 1.216',
/* authorisation */ '  ');

FILE_SCHEMA (('AP242_MANAGED_MODEL_BASED_3D_ENGINEERING_MIM_LF { 1 0 10303 442 3 1 4 }'));
ENDSEC;

DATA;
#10=SHAPE_REPRESENTATION_RELATIONSHIP('','',#1102,#11);
#11=ADVANCED_BREP_SHAPE_REPRESENTATION('',(#1100),#1796);
#12=B_SPLINE_CURVE_WITH_KNOTS('',3,(#1584,#1585,#1586,#1587,#1588,#1589,
#1590,#1591,#1592,#1593,#1594),.UNSPECIFIED.,.T.,.F.,(1,1,1,1,1,1,1,1,1,
1,1,1,1,1,1),(-0.00216205433858326,-0.00144136955905551,-0.000720684779527754,
0.,0.000720684779527754,0.00144136955905551,0.00216205433858326,0.00288273911811102,
0.00360342389763877,0.00432410867716653,0.00504479345669428,0.00576547823622203,
0.00648616301574979,0.00720684779527754,0.0079275325748053),
 .UNSPECIFIED.);
#13=B_SPLINE_CURVE_WITH_KNOTS('',3,(#1632,#1633,#1634,#1635,#1636,#1637,
#1638,#1639,#1640,#1641,#1642),.UNSPECIFIED.,.T.,.F.,(1,1,1,1,1,1,1,1,1,
1,1,1,1,1,1),(-0.00217535623729773,-0.00145023749153182,-0.000725118745765911,
0.,0.000725118745765911,0.00145023749153182,0.00217535623729773,0.00290047498306365,
0.00362559372882956,0.00435071247459547,0.00507583122036138,0.00580094996612729,
0.0065260687118932,0.00725118745765911,0.00797630620342503),
 .UNSPECIFIED.);
#14=CYLINDRICAL_SURFACE('',#1120,0.0150572218262987);
#15=CYLINDRICAL_SURFACE('',#1125,0.0021);
#16=CYLINDRICAL_SURFACE('',#1130,0.0135572218262985);
#17=CYLINDRICAL_SURFACE('',#1134,0.0036);
#18=CYLINDRICAL_SURFACE('',#1145,0.0009);
#19=CYLINDRICAL_SURFACE('',#1146,0.0009);
#20=CYLINDRICAL_SURFACE('',#1147,0.0009);
#21=CYLINDRICAL_SURFACE('',#1171,0.001);
#22=CYLINDRICAL_SURFACE('',#1172,0.001);
#23=CYLINDRICAL_SURFACE('',#1182,0.001);
#24=CIRCLE('',#1110,0.00209999999994304);
#25=CIRCLE('',#1113,0.015057221826299);
#26=CIRCLE('',#1115,0.015057221826299);
#27=CIRCLE('',#1117,0.015057221826299);
#28=CIRCLE('',#1119,0.015057221826299);
#29=CIRCLE('',#1121,0.0150572218262999);
#30=CIRCLE('',#1122,0.0150572218262987);
#31=CIRCLE('',#1123,0.0150572218262987);
#32=CIRCLE('',#1124,0.0150572218262999);
#33=CIRCLE('',#1126,0.0021);
#34=CIRCLE('',#1127,0.0021);
#35=CIRCLE('',#1131,0.0135572218262985);
#36=CIRCLE('',#1132,0.0135572218262985);
#37=CIRCLE('',#1135,0.0036);
#38=CIRCLE('',#1136,0.0036);
#39=CIRCLE('',#1141,0.001);
#40=CIRCLE('',#1143,0.001);
#41=CIRCLE('',#1144,0.001);
#42=CIRCLE('',#1162,0.001);
#43=CIRCLE('',#1164,0.001);
#44=CIRCLE('',#1176,0.001);
#45=LINE('',#1472,#168);
#46=LINE('',#1475,#169);
#47=LINE('',#1477,#170);
#48=LINE('',#1479,#171);
#49=LINE('',#1481,#172);
#50=LINE('',#1483,#173);
#51=LINE('',#1485,#174);
#52=LINE('',#1487,#175);
#53=LINE('',#1489,#176);
#54=LINE('',#1491,#177);
#55=LINE('',#1493,#178);
#56=LINE('',#1495,#179);
#57=LINE('',#1497,#180);
#58=LINE('',#1499,#181);
#59=LINE('',#1501,#182);
#60=LINE('',#1503,#183);
#61=LINE('',#1506,#184);
#62=LINE('',#1508,#185);
#63=LINE('',#1510,#186);
#64=LINE('',#1512,#187);
#65=LINE('',#1514,#188);
#66=LINE('',#1516,#189);
#67=LINE('',#1518,#190);
#68=LINE('',#1520,#191);
#69=LINE('',#1523,#192);
#70=LINE('',#1525,#193);
#71=LINE('',#1527,#194);
#72=LINE('',#1529,#195);
#73=LINE('',#1530,#196);
#74=LINE('',#1532,#197);
#75=LINE('',#1535,#198);
#76=LINE('',#1542,#199);
#77=LINE('',#1544,#200);
#78=LINE('',#1546,#201);
#79=LINE('',#1551,#202);
#80=LINE('',#1553,#203);
#81=LINE('',#1555,#204);
#82=LINE('',#1558,#205);
#83=LINE('',#1562,#206);
#84=LINE('',#1564,#207);
#85=LINE('',#1568,#208);
#86=LINE('',#1569,#209);
#87=LINE('',#1573,#210);
#88=LINE('',#1577,#211);
#89=LINE('',#1578,#212);
#90=LINE('',#1582,#213);
#91=LINE('',#1583,#214);
#92=LINE('',#1599,#215);
#93=LINE('',#1603,#216);
#94=LINE('',#1604,#217);
#95=LINE('',#1606,#218);
#96=LINE('',#1609,#219);
#97=LINE('',#1610,#220);
#98=LINE('',#1612,#221);
#99=LINE('',#1614,#222);
#100=LINE('',#1616,#223);
#101=LINE('',#1618,#224);
#102=LINE('',#1620,#225);
#103=LINE('',#1622,#226);
#104=LINE('',#1624,#227);
#105=LINE('',#1626,#228);
#106=LINE('',#1628,#229);
#107=LINE('',#1630,#230);
#108=LINE('',#1644,#231);
#109=LINE('',#1650,#232);
#110=LINE('',#1653,#233);
#111=LINE('',#1654,#234);
#112=LINE('',#1660,#235);
#113=LINE('',#1666,#236);
#114=LINE('',#1667,#237);
#115=LINE('',#1671,#238);
#116=LINE('',#1673,#239);
#117=LINE('',#1679,#240);
#118=LINE('',#1681,#241);
#119=LINE('',#1682,#242);
#120=LINE('',#1687,#243);
#121=LINE('',#1689,#244);
#122=LINE('',#1691,#245);
#123=LINE('',#1694,#246);
#124=LINE('',#1696,#247);
#125=LINE('',#1697,#248);
#126=LINE('',#1699,#249);
#127=LINE('',#1702,#250);
#128=LINE('',#1703,#251);
#129=LINE('',#1706,#252);
#130=LINE('',#1708,#253);
#131=LINE('',#1710,#254);
#132=LINE('',#1713,#255);
#133=LINE('',#1714,#256);
#134=LINE('',#1716,#257);
#135=LINE('',#1718,#258);
#136=LINE('',#1720,#259);
#137=LINE('',#1722,#260);
#138=LINE('',#1724,#261);
#139=LINE('',#1726,#262);
#140=LINE('',#1728,#263);
#141=LINE('',#1730,#264);
#142=LINE('',#1732,#265);
#143=LINE('',#1734,#266);
#144=LINE('',#1736,#267);
#145=LINE('',#1738,#268);
#146=LINE('',#1740,#269);
#147=LINE('',#1747,#270);
#148=LINE('',#1749,#271);
#149=LINE('',#1750,#272);
#150=LINE('',#1751,#273);
#151=LINE('',#1753,#274);
#152=LINE('',#1755,#275);
#153=LINE('',#1757,#276);
#154=LINE('',#1760,#277);
#155=LINE('',#1763,#278);
#156=LINE('',#1768,#279);
#157=LINE('',#1770,#280);
#158=LINE('',#1772,#281);
#159=LINE('',#1774,#282);
#160=LINE('',#1776,#283);
#161=LINE('',#1780,#284);
#162=LINE('',#1782,#285);
#163=LINE('',#1783,#286);
#164=LINE('',#1785,#287);
#165=LINE('',#1787,#288);
#166=LINE('',#1788,#289);
#167=LINE('',#1791,#290);
#168=VECTOR('',#1191,1.);
#169=VECTOR('',#1192,1.);
#170=VECTOR('',#1193,1.);
#171=VECTOR('',#1194,1.);
#172=VECTOR('',#1195,1.);
#173=VECTOR('',#1196,1.);
#174=VECTOR('',#1199,1.);
#175=VECTOR('',#1200,1.);
#176=VECTOR('',#1201,1.);
#177=VECTOR('',#1202,1.);
#178=VECTOR('',#1203,1.);
#179=VECTOR('',#1204,1.);
#180=VECTOR('',#1205,1.);
#181=VECTOR('',#1206,1.);
#182=VECTOR('',#1207,1.);
#183=VECTOR('',#1210,1.);
#184=VECTOR('',#1211,1.);
#185=VECTOR('',#1212,1.);
#186=VECTOR('',#1213,1.);
#187=VECTOR('',#1214,1.);
#188=VECTOR('',#1215,1.);
#189=VECTOR('',#1216,1.);
#190=VECTOR('',#1217,1.);
#191=VECTOR('',#1220,1.);
#192=VECTOR('',#1223,1.);
#193=VECTOR('',#1226,1.);
#194=VECTOR('',#1227,1.);
#195=VECTOR('',#1228,1.);
#196=VECTOR('',#1229,1.);
#197=VECTOR('',#1232,1.);
#198=VECTOR('',#1233,1.);
#199=VECTOR('',#1240,1.);
#200=VECTOR('',#1241,1.);
#201=VECTOR('',#1242,1.);
#202=VECTOR('',#1247,1.);
#203=VECTOR('',#1248,1.);
#204=VECTOR('',#1251,1.);
#205=VECTOR('',#1252,1.);
#206=VECTOR('',#1255,1.);
#207=VECTOR('',#1258,1.);
#208=VECTOR('',#1261,1.);
#209=VECTOR('',#1262,1.);
#210=VECTOR('',#1265,1.);
#211=VECTOR('',#1268,1.);
#212=VECTOR('',#1269,1.);
#213=VECTOR('',#1272,1.);
#214=VECTOR('',#1273,1.);
#215=VECTOR('',#1278,1.);
#216=VECTOR('',#1283,1.);
#217=VECTOR('',#1284,1.);
#218=VECTOR('',#1287,1.);
#219=VECTOR('',#1288,1.);
#220=VECTOR('',#1289,1.);
#221=VECTOR('',#1290,1.);
#222=VECTOR('',#1291,1.);
#223=VECTOR('',#1292,1.);
#224=VECTOR('',#1293,1.);
#225=VECTOR('',#1294,1.);
#226=VECTOR('',#1295,1.);
#227=VECTOR('',#1296,1.);
#228=VECTOR('',#1297,1.);
#229=VECTOR('',#1298,1.);
#230=VECTOR('',#1299,1.);
#231=VECTOR('',#1302,1.);
#232=VECTOR('',#1309,1.);
#233=VECTOR('',#1310,1.);
#234=VECTOR('',#1311,1.);
#235=VECTOR('',#1318,1.);
#236=VECTOR('',#1325,1.);
#237=VECTOR('',#1326,1.);
#238=VECTOR('',#1331,1.);
#239=VECTOR('',#1332,1.);
#240=VECTOR('',#1339,1.);
#241=VECTOR('',#1340,1.);
#242=VECTOR('',#1341,1.);
#243=VECTOR('',#1350,1.);
#244=VECTOR('',#1351,1.);
#245=VECTOR('',#1354,1.);
#246=VECTOR('',#1355,1.);
#247=VECTOR('',#1356,1.);
#248=VECTOR('',#1357,1.);
#249=VECTOR('',#1360,1.);
#250=VECTOR('',#1361,1.);
#251=VECTOR('',#1362,1.);
#252=VECTOR('',#1367,1.);
#253=VECTOR('',#1368,1.);
#254=VECTOR('',#1371,1.);
#255=VECTOR('',#1372,1.);
#256=VECTOR('',#1373,1.);
#257=VECTOR('',#1374,1.);
#258=VECTOR('',#1377,1.);
#259=VECTOR('',#1378,1.);
#260=VECTOR('',#1379,1.);
#261=VECTOR('',#1382,1.);
#262=VECTOR('',#1385,1.);
#263=VECTOR('',#1386,1.);
#264=VECTOR('',#1389,1.);
#265=VECTOR('',#1390,1.);
#266=VECTOR('',#1393,1.);
#267=VECTOR('',#1396,1.);
#268=VECTOR('',#1397,1.);
#269=VECTOR('',#1400,1.);
#270=VECTOR('',#1409,1.);
#271=VECTOR('',#1410,1.);
#272=VECTOR('',#1411,1.);
#273=VECTOR('',#1412,1.);
#274=VECTOR('',#1413,1.);
#275=VECTOR('',#1414,1.);
#276=VECTOR('',#1417,1.);
#277=VECTOR('',#1422,1.);
#278=VECTOR('',#1427,1.);
#279=VECTOR('',#1436,1.);
#280=VECTOR('',#1437,1.);
#281=VECTOR('',#1440,1.);
#282=VECTOR('',#1441,1.);
#283=VECTOR('',#1442,1.);
#284=VECTOR('',#1447,1.);
#285=VECTOR('',#1448,1.);
#286=VECTOR('',#1449,1.);
#287=VECTOR('',#1450,1.);
#288=VECTOR('',#1453,1.);
#289=VECTOR('',#1454,1.);
#290=VECTOR('',#1459,1.);
#291=ORIENTED_EDGE('',*,*,#591,.T.);
#292=ORIENTED_EDGE('',*,*,#592,.T.);
#293=ORIENTED_EDGE('',*,*,#593,.F.);
#294=ORIENTED_EDGE('',*,*,#594,.F.);
#295=ORIENTED_EDGE('',*,*,#595,.T.);
#296=ORIENTED_EDGE('',*,*,#596,.T.);
#297=ORIENTED_EDGE('',*,*,#597,.F.);
#298=ORIENTED_EDGE('',*,*,#598,.F.);
#299=ORIENTED_EDGE('',*,*,#599,.T.);
#300=ORIENTED_EDGE('',*,*,#600,.T.);
#301=ORIENTED_EDGE('',*,*,#601,.F.);
#302=ORIENTED_EDGE('',*,*,#602,.T.);
#303=ORIENTED_EDGE('',*,*,#603,.T.);
#304=ORIENTED_EDGE('',*,*,#604,.T.);
#305=ORIENTED_EDGE('',*,*,#605,.F.);
#306=ORIENTED_EDGE('',*,*,#606,.T.);
#307=ORIENTED_EDGE('',*,*,#607,.T.);
#308=ORIENTED_EDGE('',*,*,#595,.F.);
#309=ORIENTED_EDGE('',*,*,#608,.F.);
#310=ORIENTED_EDGE('',*,*,#609,.T.);
#311=ORIENTED_EDGE('',*,*,#610,.T.);
#312=ORIENTED_EDGE('',*,*,#611,.T.);
#313=ORIENTED_EDGE('',*,*,#612,.F.);
#314=ORIENTED_EDGE('',*,*,#613,.F.);
#315=ORIENTED_EDGE('',*,*,#614,.T.);
#316=ORIENTED_EDGE('',*,*,#615,.F.);
#317=ORIENTED_EDGE('',*,*,#616,.F.);
#318=ORIENTED_EDGE('',*,*,#598,.T.);
#319=ORIENTED_EDGE('',*,*,#617,.F.);
#320=ORIENTED_EDGE('',*,*,#610,.F.);
#321=ORIENTED_EDGE('',*,*,#618,.F.);
#322=ORIENTED_EDGE('',*,*,#619,.F.);
#323=ORIENTED_EDGE('',*,*,#620,.F.);
#324=ORIENTED_EDGE('',*,*,#621,.F.);
#325=ORIENTED_EDGE('',*,*,#614,.F.);
#326=ORIENTED_EDGE('',*,*,#622,.F.);
#327=ORIENTED_EDGE('',*,*,#603,.F.);
#328=ORIENTED_EDGE('',*,*,#623,.F.);
#329=ORIENTED_EDGE('',*,*,#624,.T.);
#330=ORIENTED_EDGE('',*,*,#625,.T.);
#331=ORIENTED_EDGE('',*,*,#626,.T.);
#332=ORIENTED_EDGE('',*,*,#627,.T.);
#333=ORIENTED_EDGE('',*,*,#628,.T.);
#334=ORIENTED_EDGE('',*,*,#629,.F.);
#335=ORIENTED_EDGE('',*,*,#630,.T.);
#336=ORIENTED_EDGE('',*,*,#631,.T.);
#337=ORIENTED_EDGE('',*,*,#632,.F.);
#338=ORIENTED_EDGE('',*,*,#633,.T.);
#339=ORIENTED_EDGE('',*,*,#634,.T.);
#340=ORIENTED_EDGE('',*,*,#635,.T.);
#341=ORIENTED_EDGE('',*,*,#636,.F.);
#342=ORIENTED_EDGE('',*,*,#635,.F.);
#343=ORIENTED_EDGE('',*,*,#637,.F.);
#344=ORIENTED_EDGE('',*,*,#638,.T.);
#345=ORIENTED_EDGE('',*,*,#639,.T.);
#346=ORIENTED_EDGE('',*,*,#630,.F.);
#347=ORIENTED_EDGE('',*,*,#640,.T.);
#348=ORIENTED_EDGE('',*,*,#641,.F.);
#349=ORIENTED_EDGE('',*,*,#642,.T.);
#350=ORIENTED_EDGE('',*,*,#643,.T.);
#351=ORIENTED_EDGE('',*,*,#644,.F.);
#352=ORIENTED_EDGE('',*,*,#625,.F.);
#353=ORIENTED_EDGE('',*,*,#645,.T.);
#354=ORIENTED_EDGE('',*,*,#646,.F.);
#355=ORIENTED_EDGE('',*,*,#647,.F.);
#356=ORIENTED_EDGE('',*,*,#626,.F.);
#357=ORIENTED_EDGE('',*,*,#648,.F.);
#358=ORIENTED_EDGE('',*,*,#649,.T.);
#359=ORIENTED_EDGE('',*,*,#611,.F.);
#360=ORIENTED_EDGE('',*,*,#617,.T.);
#361=ORIENTED_EDGE('',*,*,#597,.T.);
#362=ORIENTED_EDGE('',*,*,#650,.F.);
#363=ORIENTED_EDGE('',*,*,#651,.F.);
#364=ORIENTED_EDGE('',*,*,#652,.T.);
#365=ORIENTED_EDGE('',*,*,#653,.F.);
#366=ORIENTED_EDGE('',*,*,#651,.T.);
#367=ORIENTED_EDGE('',*,*,#654,.T.);
#368=ORIENTED_EDGE('',*,*,#642,.F.);
#369=ORIENTED_EDGE('',*,*,#655,.F.);
#370=ORIENTED_EDGE('',*,*,#656,.T.);
#371=ORIENTED_EDGE('',*,*,#636,.T.);
#372=ORIENTED_EDGE('',*,*,#648,.T.);
#373=ORIENTED_EDGE('',*,*,#629,.T.);
#374=ORIENTED_EDGE('',*,*,#657,.T.);
#375=ORIENTED_EDGE('',*,*,#658,.T.);
#376=ORIENTED_EDGE('',*,*,#659,.T.);
#377=ORIENTED_EDGE('',*,*,#660,.T.);
#378=ORIENTED_EDGE('',*,*,#661,.T.);
#379=ORIENTED_EDGE('',*,*,#662,.T.);
#380=ORIENTED_EDGE('',*,*,#663,.F.);
#381=ORIENTED_EDGE('',*,*,#664,.F.);
#382=ORIENTED_EDGE('',*,*,#665,.F.);
#383=ORIENTED_EDGE('',*,*,#666,.T.);
#384=ORIENTED_EDGE('',*,*,#667,.T.);
#385=ORIENTED_EDGE('',*,*,#668,.F.);
#386=ORIENTED_EDGE('',*,*,#669,.F.);
#387=ORIENTED_EDGE('',*,*,#670,.T.);
#388=ORIENTED_EDGE('',*,*,#663,.T.);
#389=ORIENTED_EDGE('',*,*,#671,.F.);
#390=ORIENTED_EDGE('',*,*,#672,.F.);
#391=ORIENTED_EDGE('',*,*,#673,.T.);
#392=ORIENTED_EDGE('',*,*,#669,.T.);
#393=ORIENTED_EDGE('',*,*,#674,.F.);
#394=ORIENTED_EDGE('',*,*,#675,.F.);
#395=ORIENTED_EDGE('',*,*,#672,.T.);
#396=ORIENTED_EDGE('',*,*,#676,.T.);
#397=ORIENTED_EDGE('',*,*,#677,.F.);
#398=ORIENTED_EDGE('',*,*,#678,.F.);
#399=ORIENTED_EDGE('',*,*,#679,.F.);
#400=ORIENTED_EDGE('',*,*,#606,.F.);
#401=ORIENTED_EDGE('',*,*,#680,.T.);
#402=ORIENTED_EDGE('',*,*,#677,.T.);
#403=ORIENTED_EDGE('',*,*,#681,.F.);
#404=ORIENTED_EDGE('',*,*,#682,.F.);
#405=ORIENTED_EDGE('',*,*,#650,.T.);
#406=ORIENTED_EDGE('',*,*,#596,.F.);
#407=ORIENTED_EDGE('',*,*,#607,.F.);
#408=ORIENTED_EDGE('',*,*,#681,.T.);
#409=ORIENTED_EDGE('',*,*,#676,.F.);
#410=ORIENTED_EDGE('',*,*,#674,.T.);
#411=ORIENTED_EDGE('',*,*,#671,.T.);
#412=ORIENTED_EDGE('',*,*,#662,.F.);
#413=ORIENTED_EDGE('',*,*,#683,.T.);
#414=ORIENTED_EDGE('',*,*,#684,.T.);
#415=ORIENTED_EDGE('',*,*,#643,.F.);
#416=ORIENTED_EDGE('',*,*,#654,.F.);
#417=ORIENTED_EDGE('',*,*,#685,.T.);
#418=ORIENTED_EDGE('',*,*,#686,.T.);
#419=ORIENTED_EDGE('',*,*,#652,.F.);
#420=ORIENTED_EDGE('',*,*,#653,.T.);
#421=ORIENTED_EDGE('',*,*,#641,.T.);
#422=ORIENTED_EDGE('',*,*,#687,.T.);
#423=ORIENTED_EDGE('',*,*,#688,.T.);
#424=ORIENTED_EDGE('',*,*,#664,.T.);
#425=ORIENTED_EDGE('',*,*,#670,.F.);
#426=ORIENTED_EDGE('',*,*,#673,.F.);
#427=ORIENTED_EDGE('',*,*,#675,.T.);
#428=ORIENTED_EDGE('',*,*,#680,.F.);
#429=ORIENTED_EDGE('',*,*,#605,.T.);
#430=ORIENTED_EDGE('',*,*,#689,.T.);
#431=ORIENTED_EDGE('',*,*,#612,.T.);
#432=ORIENTED_EDGE('',*,*,#679,.T.);
#433=ORIENTED_EDGE('',*,*,#592,.F.);
#434=ORIENTED_EDGE('',*,*,#678,.T.);
#435=ORIENTED_EDGE('',*,*,#591,.F.);
#436=ORIENTED_EDGE('',*,*,#668,.T.);
#437=ORIENTED_EDGE('',*,*,#649,.F.);
#438=ORIENTED_EDGE('',*,*,#683,.F.);
#439=ORIENTED_EDGE('',*,*,#661,.F.);
#440=ORIENTED_EDGE('',*,*,#690,.T.);
#441=ORIENTED_EDGE('',*,*,#691,.T.);
#442=ORIENTED_EDGE('',*,*,#692,.F.);
#443=ORIENTED_EDGE('',*,*,#693,.F.);
#444=ORIENTED_EDGE('',*,*,#694,.F.);
#445=ORIENTED_EDGE('',*,*,#623,.T.);
#446=ORIENTED_EDGE('',*,*,#644,.T.);
#447=ORIENTED_EDGE('',*,*,#684,.F.);
#448=ORIENTED_EDGE('',*,*,#691,.F.);
#449=ORIENTED_EDGE('',*,*,#695,.T.);
#450=ORIENTED_EDGE('',*,*,#696,.T.);
#451=ORIENTED_EDGE('',*,*,#697,.T.);
#452=ORIENTED_EDGE('',*,*,#695,.F.);
#453=ORIENTED_EDGE('',*,*,#690,.F.);
#454=ORIENTED_EDGE('',*,*,#660,.F.);
#455=ORIENTED_EDGE('',*,*,#698,.T.);
#456=ORIENTED_EDGE('',*,*,#689,.F.);
#457=ORIENTED_EDGE('',*,*,#604,.F.);
#458=ORIENTED_EDGE('',*,*,#622,.T.);
#459=ORIENTED_EDGE('',*,*,#613,.T.);
#460=ORIENTED_EDGE('',*,*,#688,.F.);
#461=ORIENTED_EDGE('',*,*,#699,.F.);
#462=ORIENTED_EDGE('',*,*,#700,.T.);
#463=ORIENTED_EDGE('',*,*,#665,.T.);
#464=ORIENTED_EDGE('',*,*,#701,.F.);
#465=ORIENTED_EDGE('',*,*,#702,.T.);
#466=ORIENTED_EDGE('',*,*,#699,.T.);
#467=ORIENTED_EDGE('',*,*,#687,.F.);
#468=ORIENTED_EDGE('',*,*,#640,.F.);
#469=ORIENTED_EDGE('',*,*,#632,.T.);
#470=ORIENTED_EDGE('',*,*,#703,.F.);
#471=ORIENTED_EDGE('',*,*,#704,.T.);
#472=ORIENTED_EDGE('',*,*,#702,.F.);
#473=ORIENTED_EDGE('',*,*,#705,.T.);
#474=ORIENTED_EDGE('',*,*,#706,.T.);
#475=ORIENTED_EDGE('',*,*,#707,.T.);
#476=ORIENTED_EDGE('',*,*,#666,.F.);
#477=ORIENTED_EDGE('',*,*,#700,.F.);
#478=ORIENTED_EDGE('',*,*,#703,.T.);
#479=ORIENTED_EDGE('',*,*,#631,.F.);
#480=ORIENTED_EDGE('',*,*,#639,.F.);
#481=ORIENTED_EDGE('',*,*,#708,.F.);
#482=ORIENTED_EDGE('',*,*,#701,.T.);
#483=ORIENTED_EDGE('',*,*,#709,.F.);
#484=ORIENTED_EDGE('',*,*,#710,.T.);
#485=ORIENTED_EDGE('',*,*,#705,.F.);
#486=ORIENTED_EDGE('',*,*,#710,.F.);
#487=ORIENTED_EDGE('',*,*,#711,.F.);
#488=ORIENTED_EDGE('',*,*,#712,.T.);
#489=ORIENTED_EDGE('',*,*,#706,.F.);
#490=ORIENTED_EDGE('',*,*,#707,.F.);
#491=ORIENTED_EDGE('',*,*,#712,.F.);
#492=ORIENTED_EDGE('',*,*,#713,.F.);
#493=ORIENTED_EDGE('',*,*,#667,.F.);
#494=ORIENTED_EDGE('',*,*,#714,.F.);
#495=ORIENTED_EDGE('',*,*,#715,.T.);
#496=ORIENTED_EDGE('',*,*,#633,.F.);
#497=ORIENTED_EDGE('',*,*,#656,.F.);
#498=ORIENTED_EDGE('',*,*,#715,.F.);
#499=ORIENTED_EDGE('',*,*,#716,.F.);
#500=ORIENTED_EDGE('',*,*,#637,.T.);
#501=ORIENTED_EDGE('',*,*,#634,.F.);
#502=ORIENTED_EDGE('',*,*,#717,.T.);
#503=ORIENTED_EDGE('',*,*,#655,.T.);
#504=ORIENTED_EDGE('',*,*,#713,.T.);
#505=ORIENTED_EDGE('',*,*,#711,.T.);
#506=ORIENTED_EDGE('',*,*,#709,.T.);
#507=ORIENTED_EDGE('',*,*,#704,.F.);
#508=ORIENTED_EDGE('',*,*,#708,.T.);
#509=ORIENTED_EDGE('',*,*,#638,.F.);
#510=ORIENTED_EDGE('',*,*,#716,.T.);
#511=ORIENTED_EDGE('',*,*,#714,.T.);
#512=ORIENTED_EDGE('',*,*,#718,.F.);
#513=ORIENTED_EDGE('',*,*,#719,.F.);
#514=ORIENTED_EDGE('',*,*,#720,.F.);
#515=ORIENTED_EDGE('',*,*,#646,.T.);
#516=ORIENTED_EDGE('',*,*,#721,.F.);
#517=ORIENTED_EDGE('',*,*,#693,.T.);
#518=ORIENTED_EDGE('',*,*,#722,.F.);
#519=ORIENTED_EDGE('',*,*,#723,.F.);
#520=ORIENTED_EDGE('',*,*,#724,.F.);
#521=ORIENTED_EDGE('',*,*,#658,.F.);
#522=ORIENTED_EDGE('',*,*,#692,.T.);
#523=ORIENTED_EDGE('',*,*,#697,.F.);
#524=ORIENTED_EDGE('',*,*,#725,.T.);
#525=ORIENTED_EDGE('',*,*,#722,.T.);
#526=ORIENTED_EDGE('',*,*,#694,.T.);
#527=ORIENTED_EDGE('',*,*,#721,.T.);
#528=ORIENTED_EDGE('',*,*,#645,.F.);
#529=ORIENTED_EDGE('',*,*,#624,.F.);
#530=ORIENTED_EDGE('',*,*,#647,.T.);
#531=ORIENTED_EDGE('',*,*,#720,.T.);
#532=ORIENTED_EDGE('',*,*,#726,.F.);
#533=ORIENTED_EDGE('',*,*,#627,.F.);
#534=ORIENTED_EDGE('',*,*,#628,.F.);
#535=ORIENTED_EDGE('',*,*,#726,.T.);
#536=ORIENTED_EDGE('',*,*,#719,.T.);
#537=ORIENTED_EDGE('',*,*,#657,.F.);
#538=ORIENTED_EDGE('',*,*,#724,.T.);
#539=ORIENTED_EDGE('',*,*,#727,.F.);
#540=ORIENTED_EDGE('',*,*,#698,.F.);
#541=ORIENTED_EDGE('',*,*,#659,.F.);
#542=ORIENTED_EDGE('',*,*,#727,.T.);
#543=ORIENTED_EDGE('',*,*,#723,.T.);
#544=ORIENTED_EDGE('',*,*,#725,.F.);
#545=ORIENTED_EDGE('',*,*,#696,.F.);
#546=ORIENTED_EDGE('',*,*,#718,.T.);
#547=ORIENTED_EDGE('',*,*,#682,.T.);
#548=ORIENTED_EDGE('',*,*,#686,.F.);
#549=ORIENTED_EDGE('',*,*,#717,.F.);
#550=ORIENTED_EDGE('',*,*,#728,.F.);
#551=ORIENTED_EDGE('',*,*,#729,.T.);
#552=ORIENTED_EDGE('',*,*,#619,.T.);
#553=ORIENTED_EDGE('',*,*,#602,.F.);
#554=ORIENTED_EDGE('',*,*,#600,.F.);
#555=ORIENTED_EDGE('',*,*,#730,.T.);
#556=ORIENTED_EDGE('',*,*,#731,.F.);
#557=ORIENTED_EDGE('',*,*,#732,.F.);
#558=ORIENTED_EDGE('',*,*,#733,.T.);
#559=ORIENTED_EDGE('',*,*,#601,.T.);
#560=ORIENTED_EDGE('',*,*,#732,.T.);
#561=ORIENTED_EDGE('',*,*,#734,.T.);
#562=ORIENTED_EDGE('',*,*,#735,.T.);
#563=ORIENTED_EDGE('',*,*,#608,.T.);
#564=ORIENTED_EDGE('',*,*,#736,.T.);
#565=ORIENTED_EDGE('',*,*,#737,.T.);
#566=ORIENTED_EDGE('',*,*,#728,.T.);
#567=ORIENTED_EDGE('',*,*,#731,.T.);
#568=ORIENTED_EDGE('',*,*,#738,.T.);
#569=ORIENTED_EDGE('',*,*,#593,.T.);
#570=ORIENTED_EDGE('',*,*,#616,.T.);
#571=ORIENTED_EDGE('',*,*,#739,.F.);
#572=ORIENTED_EDGE('',*,*,#734,.F.);
#573=ORIENTED_EDGE('',*,*,#618,.T.);
#574=ORIENTED_EDGE('',*,*,#609,.F.);
#575=ORIENTED_EDGE('',*,*,#735,.F.);
#576=ORIENTED_EDGE('',*,*,#739,.T.);
#577=ORIENTED_EDGE('',*,*,#621,.T.);
#578=ORIENTED_EDGE('',*,*,#740,.F.);
#579=ORIENTED_EDGE('',*,*,#736,.F.);
#580=ORIENTED_EDGE('',*,*,#615,.T.);
#581=ORIENTED_EDGE('',*,*,#620,.T.);
#582=ORIENTED_EDGE('',*,*,#729,.F.);
#583=ORIENTED_EDGE('',*,*,#737,.F.);
#584=ORIENTED_EDGE('',*,*,#740,.T.);
#585=ORIENTED_EDGE('',*,*,#594,.T.);
#586=ORIENTED_EDGE('',*,*,#738,.F.);
#587=ORIENTED_EDGE('',*,*,#730,.F.);
#588=ORIENTED_EDGE('',*,*,#599,.F.);
#589=ORIENTED_EDGE('',*,*,#685,.F.);
#590=ORIENTED_EDGE('',*,*,#733,.F.);
#591=EDGE_CURVE('',#741,#741,#845,.T.);
#592=EDGE_CURVE('',#742,#742,#846,.T.);
#593=EDGE_CURVE('',#743,#744,#45,.T.);
#594=EDGE_CURVE('',#745,#743,#46,.T.);
#595=EDGE_CURVE('',#745,#746,#47,.T.);
#596=EDGE_CURVE('',#746,#747,#48,.T.);
#597=EDGE_CURVE('',#748,#747,#49,.T.);
#598=EDGE_CURVE('',#744,#748,#50,.T.);
#599=EDGE_CURVE('',#745,#749,#51,.T.);
#600=EDGE_CURVE('',#749,#750,#52,.T.);
#601=EDGE_CURVE('',#751,#750,#53,.T.);
#602=EDGE_CURVE('',#751,#752,#54,.T.);
#603=EDGE_CURVE('',#752,#753,#55,.T.);
#604=EDGE_CURVE('',#753,#754,#56,.T.);
#605=EDGE_CURVE('',#755,#754,#57,.T.);
#606=EDGE_CURVE('',#755,#756,#58,.T.);
#607=EDGE_CURVE('',#756,#746,#59,.T.);
#608=EDGE_CURVE('',#757,#758,#60,.T.);
#609=EDGE_CURVE('',#757,#759,#61,.T.);
#610=EDGE_CURVE('',#759,#760,#62,.T.);
#611=EDGE_CURVE('',#760,#761,#63,.T.);
#612=EDGE_CURVE('',#762,#761,#64,.T.);
#613=EDGE_CURVE('',#763,#762,#65,.T.);
#614=EDGE_CURVE('',#763,#764,#66,.T.);
#615=EDGE_CURVE('',#758,#764,#67,.T.);
#616=EDGE_CURVE('',#744,#765,#68,.T.);
#617=EDGE_CURVE('',#760,#748,#24,.T.);
#618=EDGE_CURVE('',#765,#759,#69,.T.);
#619=EDGE_CURVE('',#766,#752,#70,.T.);
#620=EDGE_CURVE('',#767,#766,#71,.T.);
#621=EDGE_CURVE('',#764,#767,#72,.T.);
#622=EDGE_CURVE('',#753,#763,#73,.T.);
#623=EDGE_CURVE('',#768,#769,#74,.T.);
#624=EDGE_CURVE('',#768,#770,#75,.T.);
#625=EDGE_CURVE('',#770,#769,#25,.T.);
#626=EDGE_CURVE('',#771,#772,#26,.T.);
#627=EDGE_CURVE('',#772,#773,#76,.T.);
#628=EDGE_CURVE('',#773,#774,#77,.T.);
#629=EDGE_CURVE('',#771,#774,#78,.T.);
#630=EDGE_CURVE('',#775,#776,#27,.T.);
#631=EDGE_CURVE('',#776,#777,#79,.T.);
#632=EDGE_CURVE('',#775,#777,#80,.T.);
#633=EDGE_CURVE('',#778,#779,#81,.T.);
#634=EDGE_CURVE('',#779,#780,#82,.T.);
#635=EDGE_CURVE('',#780,#781,#28,.T.);
#636=EDGE_CURVE('',#778,#781,#83,.T.);
#637=EDGE_CURVE('',#782,#780,#84,.T.);
#638=EDGE_CURVE('',#782,#783,#29,.T.);
#639=EDGE_CURVE('',#783,#776,#85,.T.);
#640=EDGE_CURVE('',#775,#784,#86,.T.);
#641=EDGE_CURVE('',#785,#784,#30,.T.);
#642=EDGE_CURVE('',#785,#786,#87,.T.);
#643=EDGE_CURVE('',#786,#787,#31,.T.);
#644=EDGE_CURVE('',#769,#787,#88,.T.);
#645=EDGE_CURVE('',#770,#788,#89,.T.);
#646=EDGE_CURVE('',#789,#788,#32,.T.);
#647=EDGE_CURVE('',#772,#789,#90,.T.);
#648=EDGE_CURVE('',#781,#771,#91,.T.);
#649=EDGE_CURVE('',#790,#790,#12,.T.);
#650=EDGE_CURVE('',#791,#747,#33,.T.);
#651=EDGE_CURVE('',#792,#791,#92,.T.);
#652=EDGE_CURVE('',#792,#761,#34,.T.);
#653=EDGE_CURVE('',#792,#785,#93,.T.);
#654=EDGE_CURVE('',#791,#786,#94,.T.);
#655=EDGE_CURVE('',#793,#794,#95,.T.);
#656=EDGE_CURVE('',#793,#778,#96,.T.);
#657=EDGE_CURVE('',#774,#795,#97,.T.);
#658=EDGE_CURVE('',#795,#796,#98,.T.);
#659=EDGE_CURVE('',#796,#797,#99,.T.);
#660=EDGE_CURVE('',#797,#798,#100,.T.);
#661=EDGE_CURVE('',#798,#799,#101,.T.);
#662=EDGE_CURVE('',#799,#800,#102,.T.);
#663=EDGE_CURVE('',#801,#800,#103,.T.);
#664=EDGE_CURVE('',#802,#801,#104,.T.);
#665=EDGE_CURVE('',#803,#802,#105,.T.);
#666=EDGE_CURVE('',#803,#804,#106,.T.);
#667=EDGE_CURVE('',#804,#794,#107,.T.);
#668=EDGE_CURVE('',#805,#805,#13,.T.);
#669=EDGE_CURVE('',#806,#807,#108,.T.);
#670=EDGE_CURVE('',#806,#801,#35,.T.);
#671=EDGE_CURVE('',#807,#800,#36,.T.);
#672=EDGE_CURVE('',#808,#809,#109,.T.);
#673=EDGE_CURVE('',#808,#806,#110,.T.);
#674=EDGE_CURVE('',#809,#807,#111,.T.);
#675=EDGE_CURVE('',#808,#810,#37,.T.);
#676=EDGE_CURVE('',#809,#811,#38,.T.);
#677=EDGE_CURVE('',#810,#811,#112,.T.);
#678=EDGE_CURVE('',#812,#812,#847,.T.);
#679=EDGE_CURVE('',#813,#813,#848,.T.);
#680=EDGE_CURVE('',#755,#810,#113,.T.);
#681=EDGE_CURVE('',#756,#811,#114,.T.);
#682=EDGE_CURVE('',#814,#814,#39,.F.);
#683=EDGE_CURVE('',#799,#815,#115,.T.);
#684=EDGE_CURVE('',#815,#787,#116,.T.);
#685=EDGE_CURVE('',#816,#816,#40,.F.);
#686=EDGE_CURVE('',#817,#817,#41,.F.);
#687=EDGE_CURVE('',#784,#818,#117,.T.);
#688=EDGE_CURVE('',#818,#802,#118,.T.);
#689=EDGE_CURVE('',#754,#762,#119,.T.);
#690=EDGE_CURVE('',#798,#819,#120,.T.);
#691=EDGE_CURVE('',#819,#815,#121,.T.);
#692=EDGE_CURVE('',#820,#821,#122,.T.);
#693=EDGE_CURVE('',#822,#820,#123,.T.);
#694=EDGE_CURVE('',#768,#822,#124,.T.);
#695=EDGE_CURVE('',#819,#821,#125,.T.);
#696=EDGE_CURVE('',#823,#824,#126,.T.);
#697=EDGE_CURVE('',#824,#821,#127,.T.);
#698=EDGE_CURVE('',#797,#823,#128,.T.);
#699=EDGE_CURVE('',#825,#818,#129,.T.);
#700=EDGE_CURVE('',#825,#803,#130,.T.);
#701=EDGE_CURVE('',#826,#827,#131,.T.);
#702=EDGE_CURVE('',#826,#825,#132,.T.);
#703=EDGE_CURVE('',#828,#777,#133,.T.);
#704=EDGE_CURVE('',#828,#827,#134,.T.);
#705=EDGE_CURVE('',#826,#829,#135,.T.);
#706=EDGE_CURVE('',#829,#830,#136,.T.);
#707=EDGE_CURVE('',#830,#804,#137,.T.);
#708=EDGE_CURVE('',#828,#783,#138,.T.);
#709=EDGE_CURVE('',#831,#827,#139,.T.);
#710=EDGE_CURVE('',#831,#829,#140,.T.);
#711=EDGE_CURVE('',#832,#831,#141,.T.);
#712=EDGE_CURVE('',#832,#830,#142,.T.);
#713=EDGE_CURVE('',#794,#832,#143,.T.);
#714=EDGE_CURVE('',#833,#793,#144,.T.);
#715=EDGE_CURVE('',#833,#779,#145,.T.);
#716=EDGE_CURVE('',#782,#833,#146,.T.);
#717=EDGE_CURVE('',#834,#834,#42,.F.);
#718=EDGE_CURVE('',#835,#835,#43,.F.);
#719=EDGE_CURVE('',#836,#795,#147,.T.);
#720=EDGE_CURVE('',#789,#836,#148,.T.);
#721=EDGE_CURVE('',#822,#788,#149,.T.);
#722=EDGE_CURVE('',#837,#820,#150,.T.);
#723=EDGE_CURVE('',#838,#837,#151,.T.);
#724=EDGE_CURVE('',#796,#838,#152,.T.);
#725=EDGE_CURVE('',#824,#837,#153,.T.);
#726=EDGE_CURVE('',#773,#836,#154,.T.);
#727=EDGE_CURVE('',#823,#838,#155,.T.);
#728=EDGE_CURVE('',#839,#751,#156,.T.);
#729=EDGE_CURVE('',#839,#766,#157,.T.);
#730=EDGE_CURVE('',#749,#840,#158,.T.);
#731=EDGE_CURVE('',#841,#840,#159,.T.);
#732=EDGE_CURVE('',#750,#841,#160,.T.);
#733=EDGE_CURVE('',#842,#842,#44,.F.);
#734=EDGE_CURVE('',#841,#843,#161,.T.);
#735=EDGE_CURVE('',#843,#757,#162,.T.);
#736=EDGE_CURVE('',#758,#844,#163,.T.);
#737=EDGE_CURVE('',#844,#839,#164,.T.);
#738=EDGE_CURVE('',#840,#743,#165,.T.);
#739=EDGE_CURVE('',#843,#765,#166,.T.);
#740=EDGE_CURVE('',#844,#767,#167,.T.);
#741=VERTEX_POINT('',#1469);
#742=VERTEX_POINT('',#1471);
#743=VERTEX_POINT('',#1473);
#744=VERTEX_POINT('',#1474);
#745=VERTEX_POINT('',#1476);
#746=VERTEX_POINT('',#1478);
#747=VERTEX_POINT('',#1480);
#748=VERTEX_POINT('',#1482);
#749=VERTEX_POINT('',#1486);
#750=VERTEX_POINT('',#1488);
#751=VERTEX_POINT('',#1490);
#752=VERTEX_POINT('',#1492);
#753=VERTEX_POINT('',#1494);
#754=VERTEX_POINT('',#1496);
#755=VERTEX_POINT('',#1498);
#756=VERTEX_POINT('',#1500);
#757=VERTEX_POINT('',#1504);
#758=VERTEX_POINT('',#1505);
#759=VERTEX_POINT('',#1507);
#760=VERTEX_POINT('',#1509);
#761=VERTEX_POINT('',#1511);
#762=VERTEX_POINT('',#1513);
#763=VERTEX_POINT('',#1515);
#764=VERTEX_POINT('',#1517);
#765=VERTEX_POINT('',#1521);
#766=VERTEX_POINT('',#1526);
#767=VERTEX_POINT('',#1528);
#768=VERTEX_POINT('',#1533);
#769=VERTEX_POINT('',#1534);
#770=VERTEX_POINT('',#1536);
#771=VERTEX_POINT('',#1540);
#772=VERTEX_POINT('',#1541);
#773=VERTEX_POINT('',#1543);
#774=VERTEX_POINT('',#1545);
#775=VERTEX_POINT('',#1549);
#776=VERTEX_POINT('',#1550);
#777=VERTEX_POINT('',#1552);
#778=VERTEX_POINT('',#1556);
#779=VERTEX_POINT('',#1557);
#780=VERTEX_POINT('',#1559);
#781=VERTEX_POINT('',#1561);
#782=VERTEX_POINT('',#1565);
#783=VERTEX_POINT('',#1567);
#784=VERTEX_POINT('',#1570);
#785=VERTEX_POINT('',#1572);
#786=VERTEX_POINT('',#1574);
#787=VERTEX_POINT('',#1576);
#788=VERTEX_POINT('',#1579);
#789=VERTEX_POINT('',#1581);
#790=VERTEX_POINT('',#1595);
#791=VERTEX_POINT('',#1598);
#792=VERTEX_POINT('',#1600);
#793=VERTEX_POINT('',#1607);
#794=VERTEX_POINT('',#1608);
#795=VERTEX_POINT('',#1611);
#796=VERTEX_POINT('',#1613);
#797=VERTEX_POINT('',#1615);
#798=VERTEX_POINT('',#1617);
#799=VERTEX_POINT('',#1619);
#800=VERTEX_POINT('',#1621);
#801=VERTEX_POINT('',#1623);
#802=VERTEX_POINT('',#1625);
#803=VERTEX_POINT('',#1627);
#804=VERTEX_POINT('',#1629);
#805=VERTEX_POINT('',#1643);
#806=VERTEX_POINT('',#1645);
#807=VERTEX_POINT('',#1646);
#808=VERTEX_POINT('',#1651);
#809=VERTEX_POINT('',#1652);
#810=VERTEX_POINT('',#1657);
#811=VERTEX_POINT('',#1659);
#812=VERTEX_POINT('',#1663);
#813=VERTEX_POINT('',#1665);
#814=VERTEX_POINT('',#1670);
#815=VERTEX_POINT('',#1672);
#816=VERTEX_POINT('',#1676);
#817=VERTEX_POINT('',#1678);
#818=VERTEX_POINT('',#1680);
#819=VERTEX_POINT('',#1688);
#820=VERTEX_POINT('',#1692);
#821=VERTEX_POINT('',#1693);
#822=VERTEX_POINT('',#1695);
#823=VERTEX_POINT('',#1700);
#824=VERTEX_POINT('',#1701);
#825=VERTEX_POINT('',#1707);
#826=VERTEX_POINT('',#1711);
#827=VERTEX_POINT('',#1712);
#828=VERTEX_POINT('',#1715);
#829=VERTEX_POINT('',#1719);
#830=VERTEX_POINT('',#1721);
#831=VERTEX_POINT('',#1727);
#832=VERTEX_POINT('',#1731);
#833=VERTEX_POINT('',#1737);
#834=VERTEX_POINT('',#1743);
#835=VERTEX_POINT('',#1746);
#836=VERTEX_POINT('',#1748);
#837=VERTEX_POINT('',#1752);
#838=VERTEX_POINT('',#1754);
#839=VERTEX_POINT('',#1769);
#840=VERTEX_POINT('',#1773);
#841=VERTEX_POINT('',#1775);
#842=VERTEX_POINT('',#1779);
#843=VERTEX_POINT('',#1781);
#844=VERTEX_POINT('',#1784);
#845=ELLIPSE('',#1105,0.00117105795143355,0.0009);
#846=ELLIPSE('',#1106,0.00117105795143355,0.0009);
#847=ELLIPSE('',#1138,0.00117105795143355,0.0009);
#848=ELLIPSE('',#1139,0.00117105795143355,0.0009);
#849=EDGE_LOOP('',(#291));
#850=EDGE_LOOP('',(#292));
#851=EDGE_LOOP('',(#293,#294,#295,#296,#297,#298));
#852=EDGE_LOOP('',(#299,#300,#301,#302,#303,#304,#305,#306,#307,#308));
#853=EDGE_LOOP('',(#309,#310,#311,#312,#313,#314,#315,#316));
#854=EDGE_LOOP('',(#317,#318,#319,#320,#321));
#855=EDGE_LOOP('',(#322,#323,#324,#325,#326,#327));
#856=EDGE_LOOP('',(#328,#329,#330));
#857=EDGE_LOOP('',(#331,#332,#333,#334));
#858=EDGE_LOOP('',(#335,#336,#337));
#859=EDGE_LOOP('',(#338,#339,#340,#341));
#860=EDGE_LOOP('',(#342,#343,#344,#345,#346,#347,#348,#349,#350,#351,#352,
#353,#354,#355,#356,#357));
#861=EDGE_LOOP('',(#358));
#862=EDGE_LOOP('',(#359,#360,#361,#362,#363,#364));
#863=EDGE_LOOP('',(#365,#366,#367,#368));
#864=EDGE_LOOP('',(#369,#370,#371,#372,#373,#374,#375,#376,#377,#378,#379,
#380,#381,#382,#383,#384));
#865=EDGE_LOOP('',(#385));
#866=EDGE_LOOP('',(#386,#387,#388,#389));
#867=EDGE_LOOP('',(#390,#391,#392,#393));
#868=EDGE_LOOP('',(#394,#395,#396,#397));
#869=EDGE_LOOP('',(#398));
#870=EDGE_LOOP('',(#399));
#871=EDGE_LOOP('',(#400,#401,#402,#403));
#872=EDGE_LOOP('',(#404));
#873=EDGE_LOOP('',(#405,#406,#407,#408,#409,#410,#411,#412,#413,#414,#415,
#416));
#874=EDGE_LOOP('',(#417));
#875=EDGE_LOOP('',(#418));
#876=EDGE_LOOP('',(#419,#420,#421,#422,#423,#424,#425,#426,#427,#428,#429,
#430,#431));
#877=EDGE_LOOP('',(#432));
#878=EDGE_LOOP('',(#433));
#879=EDGE_LOOP('',(#434));
#880=EDGE_LOOP('',(#435));
#881=EDGE_LOOP('',(#436));
#882=EDGE_LOOP('',(#437));
#883=EDGE_LOOP('',(#438,#439,#440,#441));
#884=EDGE_LOOP('',(#442,#443,#444,#445,#446,#447,#448,#449));
#885=EDGE_LOOP('',(#450,#451,#452,#453,#454,#455));
#886=EDGE_LOOP('',(#456,#457,#458,#459));
#887=EDGE_LOOP('',(#460,#461,#462,#463));
#888=EDGE_LOOP('',(#464,#465,#466,#467,#468,#469,#470,#471));
#889=EDGE_LOOP('',(#472,#473,#474,#475,#476,#477));
#890=EDGE_LOOP('',(#478,#479,#480,#481));
#891=EDGE_LOOP('',(#482,#483,#484,#485));
#892=EDGE_LOOP('',(#486,#487,#488,#489));
#893=EDGE_LOOP('',(#490,#491,#492,#493));
#894=EDGE_LOOP('',(#494,#495,#496,#497));
#895=EDGE_LOOP('',(#498,#499,#500,#501));
#896=EDGE_LOOP('',(#502));
#897=EDGE_LOOP('',(#503,#504,#505,#506,#507,#508,#509,#510,#511));
#898=EDGE_LOOP('',(#512));
#899=EDGE_LOOP('',(#513,#514,#515,#516,#517,#518,#519,#520,#521));
#900=EDGE_LOOP('',(#522,#523,#524,#525));
#901=EDGE_LOOP('',(#526,#527,#528,#529));
#902=EDGE_LOOP('',(#530,#531,#532,#533));
#903=EDGE_LOOP('',(#534,#535,#536,#537));
#904=EDGE_LOOP('',(#538,#539,#540,#541));
#905=EDGE_LOOP('',(#542,#543,#544,#545));
#906=EDGE_LOOP('',(#546));
#907=EDGE_LOOP('',(#547));
#908=EDGE_LOOP('',(#548));
#909=EDGE_LOOP('',(#549));
#910=EDGE_LOOP('',(#550,#551,#552,#553));
#911=EDGE_LOOP('',(#554,#555,#556,#557));
#912=EDGE_LOOP('',(#558));
#913=EDGE_LOOP('',(#559,#560,#561,#562,#563,#564,#565,#566));
#914=EDGE_LOOP('',(#567,#568,#569,#570,#571,#572));
#915=EDGE_LOOP('',(#573,#574,#575,#576));
#916=EDGE_LOOP('',(#577,#578,#579,#580));
#917=EDGE_LOOP('',(#581,#582,#583,#584));
#918=EDGE_LOOP('',(#585,#586,#587,#588));
#919=EDGE_LOOP('',(#589));
#920=EDGE_LOOP('',(#590));
#921=FACE_BOUND('',#849,.T.);
#922=FACE_BOUND('',#850,.T.);
#923=FACE_BOUND('',#851,.T.);
#924=FACE_BOUND('',#852,.T.);
#925=FACE_BOUND('',#853,.T.);
#926=FACE_BOUND('',#854,.T.);
#927=FACE_BOUND('',#855,.T.);
#928=FACE_BOUND('',#856,.T.);
#929=FACE_BOUND('',#857,.T.);
#930=FACE_BOUND('',#858,.T.);
#931=FACE_BOUND('',#859,.T.);
#932=FACE_BOUND('',#860,.T.);
#933=FACE_BOUND('',#861,.T.);
#934=FACE_BOUND('',#862,.T.);
#935=FACE_BOUND('',#863,.T.);
#936=FACE_BOUND('',#864,.T.);
#937=FACE_BOUND('',#865,.T.);
#938=FACE_BOUND('',#866,.T.);
#939=FACE_BOUND('',#867,.T.);
#940=FACE_BOUND('',#868,.T.);
#941=FACE_BOUND('',#869,.T.);
#942=FACE_BOUND('',#870,.T.);
#943=FACE_BOUND('',#871,.T.);
#944=FACE_BOUND('',#872,.T.);
#945=FACE_BOUND('',#873,.T.);
#946=FACE_BOUND('',#874,.T.);
#947=FACE_BOUND('',#875,.T.);
#948=FACE_BOUND('',#876,.T.);
#949=FACE_BOUND('',#877,.T.);
#950=FACE_BOUND('',#878,.T.);
#951=FACE_BOUND('',#879,.T.);
#952=FACE_BOUND('',#880,.T.);
#953=FACE_BOUND('',#881,.T.);
#954=FACE_BOUND('',#882,.T.);
#955=FACE_BOUND('',#883,.T.);
#956=FACE_BOUND('',#884,.T.);
#957=FACE_BOUND('',#885,.T.);
#958=FACE_BOUND('',#886,.T.);
#959=FACE_BOUND('',#887,.T.);
#960=FACE_BOUND('',#888,.T.);
#961=FACE_BOUND('',#889,.T.);
#962=FACE_BOUND('',#890,.T.);
#963=FACE_BOUND('',#891,.T.);
#964=FACE_BOUND('',#892,.T.);
#965=FACE_BOUND('',#893,.T.);
#966=FACE_BOUND('',#894,.T.);
#967=FACE_BOUND('',#895,.T.);
#968=FACE_BOUND('',#896,.T.);
#969=FACE_BOUND('',#897,.T.);
#970=FACE_BOUND('',#898,.T.);
#971=FACE_BOUND('',#899,.T.);
#972=FACE_BOUND('',#900,.T.);
#973=FACE_BOUND('',#901,.T.);
#974=FACE_BOUND('',#902,.T.);
#975=FACE_BOUND('',#903,.T.);
#976=FACE_BOUND('',#904,.T.);
#977=FACE_BOUND('',#905,.T.);
#978=FACE_BOUND('',#906,.T.);
#979=FACE_BOUND('',#907,.T.);
#980=FACE_BOUND('',#908,.T.);
#981=FACE_BOUND('',#909,.T.);
#982=FACE_BOUND('',#910,.T.);
#983=FACE_BOUND('',#911,.T.);
#984=FACE_BOUND('',#912,.T.);
#985=FACE_BOUND('',#913,.T.);
#986=FACE_BOUND('',#914,.T.);
#987=FACE_BOUND('',#915,.T.);
#988=FACE_BOUND('',#916,.T.);
#989=FACE_BOUND('',#917,.T.);
#990=FACE_BOUND('',#918,.T.);
#991=FACE_BOUND('',#919,.T.);
#992=FACE_BOUND('',#920,.T.);
#993=PLANE('',#1104);
#994=PLANE('',#1107);
#995=PLANE('',#1108);
#996=PLANE('',#1109);
#997=PLANE('',#1111);
#998=PLANE('',#1112);
#999=PLANE('',#1114);
#1000=PLANE('',#1116);
#1001=PLANE('',#1118);
#1002=PLANE('',#1128);
#1003=PLANE('',#1129);
#1004=PLANE('',#1133);
#1005=PLANE('',#1137);
#1006=PLANE('',#1140);
#1007=PLANE('',#1142);
#1008=PLANE('',#1148);
#1009=PLANE('',#1149);
#1010=PLANE('',#1150);
#1011=PLANE('',#1151);
#1012=PLANE('',#1152);
#1013=PLANE('',#1153);
#1014=PLANE('',#1154);
#1015=PLANE('',#1155);
#1016=PLANE('',#1156);
#1017=PLANE('',#1157);
#1018=PLANE('',#1158);
#1019=PLANE('',#1159);
#1020=PLANE('',#1160);
#1021=PLANE('',#1161);
#1022=PLANE('',#1163);
#1023=PLANE('',#1165);
#1024=PLANE('',#1166);
#1025=PLANE('',#1167);
#1026=PLANE('',#1168);
#1027=PLANE('',#1169);
#1028=PLANE('',#1170);
#1029=PLANE('',#1173);
#1030=PLANE('',#1174);
#1031=PLANE('',#1175);
#1032=PLANE('',#1177);
#1033=PLANE('',#1178);
#1034=PLANE('',#1179);
#1035=PLANE('',#1180);
#1036=PLANE('',#1181);
#1037=ADVANCED_FACE('',(#921,#922,#923),#993,.F.);
#1038=ADVANCED_FACE('',(#924),#994,.F.);
#1039=ADVANCED_FACE('',(#925),#995,.T.);
#1040=ADVANCED_FACE('',(#926),#996,.F.);
#1041=ADVANCED_FACE('',(#927),#997,.F.);
#1042=ADVANCED_FACE('',(#928),#998,.F.);
#1043=ADVANCED_FACE('',(#929),#999,.F.);
#1044=ADVANCED_FACE('',(#930),#1000,.F.);
#1045=ADVANCED_FACE('',(#931),#1001,.F.);
#1046=ADVANCED_FACE('',(#932,#933),#14,.T.);
#1047=ADVANCED_FACE('',(#934),#15,.F.);
#1048=ADVANCED_FACE('',(#935),#1002,.F.);
#1049=ADVANCED_FACE('',(#936),#1003,.F.);
#1050=ADVANCED_FACE('',(#937,#938),#16,.F.);
#1051=ADVANCED_FACE('',(#939),#1004,.T.);
#1052=ADVANCED_FACE('',(#940),#17,.T.);
#1053=ADVANCED_FACE('',(#941,#942,#943),#1005,.T.);
#1054=ADVANCED_FACE('',(#944,#945),#1006,.F.);
#1055=ADVANCED_FACE('',(#946,#947,#948),#1007,.T.);
#1056=ADVANCED_FACE('',(#949,#950),#18,.F.);
#1057=ADVANCED_FACE('',(#951,#952),#19,.F.);
#1058=ADVANCED_FACE('',(#953,#954),#20,.F.);
#1059=ADVANCED_FACE('',(#955),#1008,.T.);
#1060=ADVANCED_FACE('',(#956),#1009,.T.);
#1061=ADVANCED_FACE('',(#957),#1010,.F.);
#1062=ADVANCED_FACE('',(#958),#1011,.T.);
#1063=ADVANCED_FACE('',(#959),#1012,.T.);
#1064=ADVANCED_FACE('',(#960),#1013,.T.);
#1065=ADVANCED_FACE('',(#961),#1014,.F.);
#1066=ADVANCED_FACE('',(#962),#1015,.F.);
#1067=ADVANCED_FACE('',(#963),#1016,.F.);
#1068=ADVANCED_FACE('',(#964),#1017,.F.);
#1069=ADVANCED_FACE('',(#965),#1018,.F.);
#1070=ADVANCED_FACE('',(#966),#1019,.F.);
#1071=ADVANCED_FACE('',(#967),#1020,.F.);
#1072=ADVANCED_FACE('',(#968,#969),#1021,.T.);
#1073=ADVANCED_FACE('',(#970,#971),#1022,.F.);
#1074=ADVANCED_FACE('',(#972),#1023,.F.);
#1075=ADVANCED_FACE('',(#973),#1024,.F.);
#1076=ADVANCED_FACE('',(#974),#1025,.F.);
#1077=ADVANCED_FACE('',(#975),#1026,.F.);
#1078=ADVANCED_FACE('',(#976),#1027,.F.);
#1079=ADVANCED_FACE('',(#977),#1028,.F.);
#1080=ADVANCED_FACE('',(#978,#979),#21,.F.);
#1081=ADVANCED_FACE('',(#980,#981),#22,.F.);
#1082=ADVANCED_FACE('',(#982),#1029,.F.);
#1083=ADVANCED_FACE('',(#983),#1030,.F.);
#1084=ADVANCED_FACE('',(#984,#985),#1031,.T.);
#1085=ADVANCED_FACE('',(#986),#1032,.F.);
#1086=ADVANCED_FACE('',(#987),#1033,.F.);
#1087=ADVANCED_FACE('',(#988),#1034,.F.);
#1088=ADVANCED_FACE('',(#989),#1035,.F.);
#1089=ADVANCED_FACE('',(#990),#1036,.F.);
#1090=ADVANCED_FACE('',(#991,#992),#23,.F.);
#1091=CLOSED_SHELL('',(#1037,#1038,#1039,#1040,#1041,#1042,#1043,#1044,
#1045,#1046,#1047,#1048,#1049,#1050,#1051,#1052,#1053,#1054,#1055,#1056,
#1057,#1058,#1059,#1060,#1061,#1062,#1063,#1064,#1065,#1066,#1067,#1068,
#1069,#1070,#1071,#1072,#1073,#1074,#1075,#1076,#1077,#1078,#1079,#1080,
#1081,#1082,#1083,#1084,#1085,#1086,#1087,#1088,#1089,#1090));
#1092=STYLED_ITEM('',(#1093),#1100);
#1093=PRESENTATION_STYLE_ASSIGNMENT((#1094));
#1094=SURFACE_STYLE_USAGE(.BOTH.,#1095);
#1095=SURFACE_SIDE_STYLE('',(#1096));
#1096=SURFACE_STYLE_FILL_AREA(#1097);
#1097=FILL_AREA_STYLE('',(#1098));
#1098=FILL_AREA_STYLE_COLOUR('',#1099);
#1099=COLOUR_RGB('',0.262745098039216,0.282352941176471,0.301960784313725);
#1100=MANIFOLD_SOLID_BREP('Part 2',#1091);
#1101=SHAPE_DEFINITION_REPRESENTATION(#1801,#1102);
#1102=SHAPE_REPRESENTATION('Part 2',(#1103),#1796);
#1103=AXIS2_PLACEMENT_3D('',#1466,#1183,#1184);
#1104=AXIS2_PLACEMENT_3D('',#1467,#1185,#1186);
#1105=AXIS2_PLACEMENT_3D('',#1468,#1187,#1188);
#1106=AXIS2_PLACEMENT_3D('',#1470,#1189,#1190);
#1107=AXIS2_PLACEMENT_3D('',#1484,#1197,#1198);
#1108=AXIS2_PLACEMENT_3D('',#1502,#1208,#1209);
#1109=AXIS2_PLACEMENT_3D('',#1519,#1218,#1219);
#1110=AXIS2_PLACEMENT_3D('',#1522,#1221,#1222);
#1111=AXIS2_PLACEMENT_3D('',#1524,#1224,#1225);
#1112=AXIS2_PLACEMENT_3D('',#1531,#1230,#1231);
#1113=AXIS2_PLACEMENT_3D('',#1537,#1234,#1235);
#1114=AXIS2_PLACEMENT_3D('',#1538,#1236,#1237);
#1115=AXIS2_PLACEMENT_3D('',#1539,#1238,#1239);
#1116=AXIS2_PLACEMENT_3D('',#1547,#1243,#1244);
#1117=AXIS2_PLACEMENT_3D('',#1548,#1245,#1246);
#1118=AXIS2_PLACEMENT_3D('',#1554,#1249,#1250);
#1119=AXIS2_PLACEMENT_3D('',#1560,#1253,#1254);
#1120=AXIS2_PLACEMENT_3D('',#1563,#1256,#1257);
#1121=AXIS2_PLACEMENT_3D('',#1566,#1259,#1260);
#1122=AXIS2_PLACEMENT_3D('',#1571,#1263,#1264);
#1123=AXIS2_PLACEMENT_3D('',#1575,#1266,#1267);
#1124=AXIS2_PLACEMENT_3D('',#1580,#1270,#1271);
#1125=AXIS2_PLACEMENT_3D('',#1596,#1274,#1275);
#1126=AXIS2_PLACEMENT_3D('',#1597,#1276,#1277);
#1127=AXIS2_PLACEMENT_3D('',#1601,#1279,#1280);
#1128=AXIS2_PLACEMENT_3D('',#1602,#1281,#1282);
#1129=AXIS2_PLACEMENT_3D('',#1605,#1285,#1286);
#1130=AXIS2_PLACEMENT_3D('',#1631,#1300,#1301);
#1131=AXIS2_PLACEMENT_3D('',#1647,#1303,#1304);
#1132=AXIS2_PLACEMENT_3D('',#1648,#1305,#1306);
#1133=AXIS2_PLACEMENT_3D('',#1649,#1307,#1308);
#1134=AXIS2_PLACEMENT_3D('',#1655,#1312,#1313);
#1135=AXIS2_PLACEMENT_3D('',#1656,#1314,#1315);
#1136=AXIS2_PLACEMENT_3D('',#1658,#1316,#1317);
#1137=AXIS2_PLACEMENT_3D('',#1661,#1319,#1320);
#1138=AXIS2_PLACEMENT_3D('',#1662,#1321,#1322);
#1139=AXIS2_PLACEMENT_3D('',#1664,#1323,#1324);
#1140=AXIS2_PLACEMENT_3D('',#1668,#1327,#1328);
#1141=AXIS2_PLACEMENT_3D('',#1669,#1329,#1330);
#1142=AXIS2_PLACEMENT_3D('',#1674,#1333,#1334);
#1143=AXIS2_PLACEMENT_3D('',#1675,#1335,#1336);
#1144=AXIS2_PLACEMENT_3D('',#1677,#1337,#1338);
#1145=AXIS2_PLACEMENT_3D('',#1683,#1342,#1343);
#1146=AXIS2_PLACEMENT_3D('',#1684,#1344,#1345);
#1147=AXIS2_PLACEMENT_3D('',#1685,#1346,#1347);
#1148=AXIS2_PLACEMENT_3D('',#1686,#1348,#1349);
#1149=AXIS2_PLACEMENT_3D('',#1690,#1352,#1353);
#1150=AXIS2_PLACEMENT_3D('',#1698,#1358,#1359);
#1151=AXIS2_PLACEMENT_3D('',#1704,#1363,#1364);
#1152=AXIS2_PLACEMENT_3D('',#1705,#1365,#1366);
#1153=AXIS2_PLACEMENT_3D('',#1709,#1369,#1370);
#1154=AXIS2_PLACEMENT_3D('',#1717,#1375,#1376);
#1155=AXIS2_PLACEMENT_3D('',#1723,#1380,#1381);
#1156=AXIS2_PLACEMENT_3D('',#1725,#1383,#1384);
#1157=AXIS2_PLACEMENT_3D('',#1729,#1387,#1388);
#1158=AXIS2_PLACEMENT_3D('',#1733,#1391,#1392);
#1159=AXIS2_PLACEMENT_3D('',#1735,#1394,#1395);
#1160=AXIS2_PLACEMENT_3D('',#1739,#1398,#1399);
#1161=AXIS2_PLACEMENT_3D('',#1741,#1401,#1402);
#1162=AXIS2_PLACEMENT_3D('',#1742,#1403,#1404);
#1163=AXIS2_PLACEMENT_3D('',#1744,#1405,#1406);
#1164=AXIS2_PLACEMENT_3D('',#1745,#1407,#1408);
#1165=AXIS2_PLACEMENT_3D('',#1756,#1415,#1416);
#1166=AXIS2_PLACEMENT_3D('',#1758,#1418,#1419);
#1167=AXIS2_PLACEMENT_3D('',#1759,#1420,#1421);
#1168=AXIS2_PLACEMENT_3D('',#1761,#1423,#1424);
#1169=AXIS2_PLACEMENT_3D('',#1762,#1425,#1426);
#1170=AXIS2_PLACEMENT_3D('',#1764,#1428,#1429);
#1171=AXIS2_PLACEMENT_3D('',#1765,#1430,#1431);
#1172=AXIS2_PLACEMENT_3D('',#1766,#1432,#1433);
#1173=AXIS2_PLACEMENT_3D('',#1767,#1434,#1435);
#1174=AXIS2_PLACEMENT_3D('',#1771,#1438,#1439);
#1175=AXIS2_PLACEMENT_3D('',#1777,#1443,#1444);
#1176=AXIS2_PLACEMENT_3D('',#1778,#1445,#1446);
#1177=AXIS2_PLACEMENT_3D('',#1786,#1451,#1452);
#1178=AXIS2_PLACEMENT_3D('',#1789,#1455,#1456);
#1179=AXIS2_PLACEMENT_3D('',#1790,#1457,#1458);
#1180=AXIS2_PLACEMENT_3D('',#1792,#1460,#1461);
#1181=AXIS2_PLACEMENT_3D('',#1793,#1462,#1463);
#1182=AXIS2_PLACEMENT_3D('',#1794,#1464,#1465);
#1183=DIRECTION('',(0.,0.,1.));
#1184=DIRECTION('',(1.,0.,0.));
#1185=DIRECTION('',(-0.639806745062517,0.,-0.768535834540269));
#1186=DIRECTION('',(-0.768535834540269,0.,0.639806745062517));
#1187=DIRECTION('',(-0.639806745062517,0.,-0.768535834540269));
#1188=DIRECTION('',(-0.768535834540269,0.,0.639806745062517));
#1189=DIRECTION('',(-0.639806745062517,0.,-0.768535834540269));
#1190=DIRECTION('',(-0.768535834540269,0.,0.639806745062517));
#1191=DIRECTION('',(0.,1.,0.));
#1192=DIRECTION('',(0.768535834540268,0.,-0.639806745062518));
#1193=DIRECTION('',(0.,-1.,0.));
#1194=DIRECTION('',(0.768535834540269,0.,-0.639806745062517));
#1195=DIRECTION('',(0.,-1.,0.));
#1196=DIRECTION('',(0.768535834540269,0.,-0.639806745062517));
#1197=DIRECTION('',(1.,0.,0.));
#1198=DIRECTION('',(0.,0.,-1.));
#1199=DIRECTION('',(0.,0.,-1.));
#1200=DIRECTION('',(0.,1.,0.));
#1201=DIRECTION('',(0.,0.,-1.));
#1202=DIRECTION('',(0.,-1.,0.));
#1203=DIRECTION('',(0.,0.,1.));
#1204=DIRECTION('',(0.,1.,0.));
#1205=DIRECTION('',(0.,0.,1.));
#1206=DIRECTION('',(0.,-1.,0.));
#1207=DIRECTION('',(0.,0.,1.));
#1208=DIRECTION('',(1.,0.,0.));
#1209=DIRECTION('',(0.,0.,-1.));
#1210=DIRECTION('',(0.,0.,1.));
#1211=DIRECTION('',(0.,-1.,0.));
#1212=DIRECTION('',(0.,0.,-1.));
#1213=DIRECTION('',(0.,1.,0.));
#1214=DIRECTION('',(0.,0.,-1.));
#1215=DIRECTION('',(0.,1.,0.));
#1216=DIRECTION('',(0.,0.,-1.));
#1217=DIRECTION('',(0.,-1.,0.));
#1218=DIRECTION('',(0.,1.,0.));
#1219=DIRECTION('',(-1.,0.,0.));
#1220=DIRECTION('',(1.,0.,-7.51430849740808E-16));
#1221=DIRECTION('',(0.,1.,0.));
#1222=DIRECTION('',(0.,0.,1.));
#1223=DIRECTION('',(0.5,0.,0.866025403784439));
#1224=DIRECTION('',(0.,1.,0.));
#1225=DIRECTION('',(-1.,0.,0.));
#1226=DIRECTION('',(-0.5,0.,-0.866025403784439));
#1227=DIRECTION('',(-1.,0.,0.));
#1228=DIRECTION('',(-0.5,0.,0.866025403784439));
#1229=DIRECTION('',(1.,0.,-1.3010426069826E-16));
#1230=DIRECTION('',(0.,-1.,0.));
#1231=DIRECTION('',(1.,0.,0.));
#1232=DIRECTION('',(0.,0.,-1.));
#1233=DIRECTION('',(0.49999999999998,0.,-0.86602540378445));
#1234=DIRECTION('',(0.,-1.,0.));
#1235=DIRECTION('',(0.,0.,-1.));
#1236=DIRECTION('',(0.,-1.,0.));
#1237=DIRECTION('',(1.,0.,0.));
#1238=DIRECTION('',(0.,-1.,0.));
#1239=DIRECTION('',(0.,0.,-1.));
#1240=DIRECTION('',(1.,0.,-1.75048320289468E-14));
#1241=DIRECTION('',(0.500000000000017,0.,0.866025403784429));
#1242=DIRECTION('',(0.,0.,1.));
#1243=DIRECTION('',(0.,1.,0.));
#1244=DIRECTION('',(-1.,0.,0.));
#1245=DIRECTION('',(0.,1.,0.));
#1246=DIRECTION('',(0.,0.,1.));
#1247=DIRECTION('',(-0.49999999999998,0.,0.86602540378445));
#1248=DIRECTION('',(0.,0.,1.));
#1249=DIRECTION('',(0.,1.,0.));
#1250=DIRECTION('',(-1.,0.,0.));
#1251=DIRECTION('',(-0.500000000000017,0.,-0.866025403784429));
#1252=DIRECTION('',(-1.,0.,1.75048320289468E-14));
#1253=DIRECTION('',(0.,1.,0.));
#1254=DIRECTION('',(0.,0.,1.));
#1255=DIRECTION('',(0.,0.,-1.));
#1256=DIRECTION('',(0.,-1.,0.));
#1257=DIRECTION('',(0.,0.,-1.));
#1258=DIRECTION('',(0.,-1.,0.));
#1259=DIRECTION('',(0.,-1.,0.));
#1260=DIRECTION('',(0.,0.,-1.));
#1261=DIRECTION('',(0.,-1.,0.));
#1262=DIRECTION('',(0.,1.,0.));
#1263=DIRECTION('',(0.,1.,0.));
#1264=DIRECTION('',(0.,0.,1.));
#1265=DIRECTION('',(0.,-1.,0.));
#1266=DIRECTION('',(0.,1.,0.));
#1267=DIRECTION('',(0.,0.,1.));
#1268=DIRECTION('',(0.,-1.,0.));
#1269=DIRECTION('',(0.,-1.,0.));
#1270=DIRECTION('',(0.,-1.,0.));
#1271=DIRECTION('',(0.,0.,-1.));
#1272=DIRECTION('',(0.,-1.,0.));
#1273=DIRECTION('',(0.,-1.,0.));
#1274=DIRECTION('',(0.,-1.,0.));
#1275=DIRECTION('',(0.,0.,-1.));
#1276=DIRECTION('',(0.,1.,0.));
#1277=DIRECTION('',(0.,0.,1.));
#1278=DIRECTION('',(0.,-1.,0.));
#1279=DIRECTION('',(0.,1.,0.));
#1280=DIRECTION('',(0.,0.,1.));
#1281=DIRECTION('',(0.,0.,-1.));
#1282=DIRECTION('',(-1.,0.,0.));
#1283=DIRECTION('',(1.,0.,0.));
#1284=DIRECTION('',(1.,0.,0.));
#1285=DIRECTION('',(-1.,0.,0.));
#1286=DIRECTION('',(0.,0.,1.));
#1287=DIRECTION('',(0.,0.,1.));
#1288=DIRECTION('',(0.,-1.,0.));
#1289=DIRECTION('',(0.,-1.,0.));
#1290=DIRECTION('',(0.,0.,1.));
#1291=DIRECTION('',(0.,1.,0.));
#1292=DIRECTION('',(0.,0.,1.));
#1293=DIRECTION('',(0.,-1.,0.));
#1294=DIRECTION('',(0.,0.,-1.));
#1295=DIRECTION('',(0.,-1.,0.));
#1296=DIRECTION('',(0.,0.,-1.));
#1297=DIRECTION('',(0.,1.,0.));
#1298=DIRECTION('',(0.,0.,-1.));
#1299=DIRECTION('',(0.,1.,0.));
#1300=DIRECTION('',(0.,-1.,0.));
#1301=DIRECTION('',(0.,0.,-1.));
#1302=DIRECTION('',(0.,-1.,0.));
#1303=DIRECTION('',(0.,1.,0.));
#1304=DIRECTION('',(0.,0.,1.));
#1305=DIRECTION('',(0.,1.,0.));
#1306=DIRECTION('',(0.,0.,1.));
#1307=DIRECTION('',(0.,0.,-1.));
#1308=DIRECTION('',(-1.,0.,0.));
#1309=DIRECTION('',(0.,-1.,0.));
#1310=DIRECTION('',(1.,0.,0.));
#1311=DIRECTION('',(1.,0.,0.));
#1312=DIRECTION('',(0.,-1.,0.));
#1313=DIRECTION('',(0.,0.,-1.));
#1314=DIRECTION('',(0.,1.,0.));
#1315=DIRECTION('',(0.,0.,1.));
#1316=DIRECTION('',(0.,1.,0.));
#1317=DIRECTION('',(0.,0.,1.));
#1318=DIRECTION('',(0.,-1.,0.));
#1319=DIRECTION('',(-0.639806745062517,0.,-0.768535834540269));
#1320=DIRECTION('',(-0.768535834540269,0.,0.639806745062517));
#1321=DIRECTION('',(-0.639806745062517,0.,-0.768535834540269));
#1322=DIRECTION('',(-0.768535834540269,0.,0.639806745062517));
#1323=DIRECTION('',(-0.639806745062517,0.,-0.768535834540269));
#1324=DIRECTION('',(-0.768535834540269,0.,0.639806745062517));
#1325=DIRECTION('',(0.768535834540269,0.,-0.639806745062517));
#1326=DIRECTION('',(0.768535834540269,0.,-0.639806745062517));
#1327=DIRECTION('',(0.,1.,0.));
#1328=DIRECTION('',(-1.,0.,0.));
#1329=DIRECTION('',(0.,1.,0.));
#1330=DIRECTION('',(0.,0.,1.));
#1331=DIRECTION('',(-1.,0.,0.));
#1332=DIRECTION('',(0.,0.,-1.));
#1333=DIRECTION('',(0.,1.,0.));
#1334=DIRECTION('',(0.,0.,1.));
#1335=DIRECTION('',(0.,1.,0.));
#1336=DIRECTION('',(0.,0.,1.));
#1337=DIRECTION('',(0.,1.,0.));
#1338=DIRECTION('',(0.,0.,1.));
#1339=DIRECTION('',(0.,0.,1.));
#1340=DIRECTION('',(1.,0.,0.));
#1341=DIRECTION('',(1.,0.,-1.3010426069826E-16));
#1342=DIRECTION('',(0.,0.,1.));
#1343=DIRECTION('',(1.,0.,0.));
#1344=DIRECTION('',(0.,0.,1.));
#1345=DIRECTION('',(1.,0.,0.));
#1346=DIRECTION('',(0.,0.,1.));
#1347=DIRECTION('',(1.,0.,0.));
#1348=DIRECTION('',(0.,0.,1.));
#1349=DIRECTION('',(1.,0.,0.));
#1350=DIRECTION('',(-1.,0.,0.));
#1351=DIRECTION('',(0.,-1.,0.));
#1352=DIRECTION('',(-1.,0.,0.));
#1353=DIRECTION('',(0.,0.,1.));
#1354=DIRECTION('',(0.,1.,0.));
#1355=DIRECTION('',(0.,0.,1.));
#1356=DIRECTION('',(0.,-1.,0.));
#1357=DIRECTION('',(0.,0.,-1.));
#1358=DIRECTION('',(0.,-1.,0.));
#1359=DIRECTION('',(1.,0.,0.));
#1360=DIRECTION('',(-1.,0.,1.73600798076295E-14));
#1361=DIRECTION('',(-0.500000000000014,0.,-0.866025403784431));
#1362=DIRECTION('',(-0.499999999999986,0.,0.866025403784447));
#1363=DIRECTION('',(1.3010426069826E-16,0.,1.));
#1364=DIRECTION('',(1.,0.,-1.3010426069826E-16));
#1365=DIRECTION('',(0.,0.,1.));
#1366=DIRECTION('',(1.,0.,0.));
#1367=DIRECTION('',(0.,1.,0.));
#1368=DIRECTION('',(1.,0.,0.));
#1369=DIRECTION('',(-1.,0.,0.));
#1370=DIRECTION('',(0.,0.,1.));
#1371=DIRECTION('',(0.,1.,0.));
#1372=DIRECTION('',(0.,0.,1.));
#1373=DIRECTION('',(0.,-1.,0.));
#1374=DIRECTION('',(0.,0.,1.));
#1375=DIRECTION('',(0.,1.,0.));
#1376=DIRECTION('',(-1.,0.,0.));
#1377=DIRECTION('',(0.500000000000014,0.,0.866025403784431));
#1378=DIRECTION('',(1.,0.,-1.73600798076295E-14));
#1379=DIRECTION('',(0.499999999999986,0.,-0.866025403784447));
#1380=DIRECTION('',(-0.86602540378445,0.,-0.49999999999998));
#1381=DIRECTION('',(-0.49999999999998,0.,0.86602540378445));
#1382=DIRECTION('',(0.49999999999998,0.,-0.86602540378445));
#1383=DIRECTION('',(-0.866025403784431,0.,0.500000000000014));
#1384=DIRECTION('',(0.500000000000014,0.,0.866025403784431));
#1385=DIRECTION('',(-0.500000000000014,0.,-0.866025403784431));
#1386=DIRECTION('',(0.,-1.,0.));
#1387=DIRECTION('',(1.73600798076295E-14,0.,1.));
#1388=DIRECTION('',(1.,0.,-1.73600798076295E-14));
#1389=DIRECTION('',(-1.,0.,1.73600798076295E-14));
#1390=DIRECTION('',(0.,-1.,0.));
#1391=DIRECTION('',(0.866025403784447,0.,0.499999999999986));
#1392=DIRECTION('',(0.499999999999986,0.,-0.866025403784447));
#1393=DIRECTION('',(-0.499999999999986,0.,0.866025403784447));
#1394=DIRECTION('',(0.866025403784429,0.,-0.500000000000017));
#1395=DIRECTION('',(-0.500000000000017,0.,-0.866025403784429));
#1396=DIRECTION('',(0.500000000000017,0.,0.866025403784429));
#1397=DIRECTION('',(0.,-1.,0.));
#1398=DIRECTION('',(-1.75048320289468E-14,0.,-1.));
#1399=DIRECTION('',(-1.,0.,1.75048320289468E-14));
#1400=DIRECTION('',(1.,0.,-1.75048320289468E-14));
#1401=DIRECTION('',(0.,-1.,0.));
#1402=DIRECTION('',(1.,0.,0.));
#1403=DIRECTION('',(0.,-1.,0.));
#1404=DIRECTION('',(0.,0.,-1.));
#1405=DIRECTION('',(0.,-1.,0.));
#1406=DIRECTION('',(1.,0.,0.));
#1407=DIRECTION('',(0.,-1.,0.));
#1408=DIRECTION('',(0.,0.,-1.));
#1409=DIRECTION('',(0.500000000000017,0.,0.866025403784429));
#1410=DIRECTION('',(1.,0.,-1.75048320289468E-14));
#1411=DIRECTION('',(0.49999999999998,0.,-0.86602540378445));
#1412=DIRECTION('',(-0.500000000000014,0.,-0.866025403784431));
#1413=DIRECTION('',(-1.,0.,1.73600798076295E-14));
#1414=DIRECTION('',(-0.499999999999986,0.,0.866025403784447));
#1415=DIRECTION('',(-0.866025403784431,0.,0.500000000000014));
#1416=DIRECTION('',(0.500000000000014,0.,0.866025403784431));
#1417=DIRECTION('',(0.,-1.,0.));
#1418=DIRECTION('',(-0.86602540378445,0.,-0.49999999999998));
#1419=DIRECTION('',(-0.49999999999998,0.,0.86602540378445));
#1420=DIRECTION('',(-1.75048320289468E-14,0.,-1.));
#1421=DIRECTION('',(-1.,0.,1.75048320289468E-14));
#1422=DIRECTION('',(0.,-1.,0.));
#1423=DIRECTION('',(0.866025403784429,0.,-0.500000000000017));
#1424=DIRECTION('',(-0.500000000000017,0.,-0.866025403784429));
#1425=DIRECTION('',(0.866025403784447,0.,0.499999999999986));
#1426=DIRECTION('',(0.499999999999986,0.,-0.866025403784447));
#1427=DIRECTION('',(0.,-1.,0.));
#1428=DIRECTION('',(1.73600798076295E-14,0.,1.));
#1429=DIRECTION('',(1.,0.,-1.73600798076295E-14));
#1430=DIRECTION('',(0.,-1.,0.));
#1431=DIRECTION('',(0.,0.,-1.));
#1432=DIRECTION('',(0.,-1.,0.));
#1433=DIRECTION('',(0.,0.,-1.));
#1434=DIRECTION('',(-0.866025403784439,0.,0.5));
#1435=DIRECTION('',(0.5,0.,0.866025403784439));
#1436=DIRECTION('',(-0.5,0.,-0.866025403784439));
#1437=DIRECTION('',(0.,-1.,0.));
#1438=DIRECTION('',(-0.866025403784438,0.,-0.5));
#1439=DIRECTION('',(-0.5,0.,0.866025403784439));
#1440=DIRECTION('',(0.5,0.,-0.866025403784439));
#1441=DIRECTION('',(0.,-1.,0.));
#1442=DIRECTION('',(0.5,0.,-0.866025403784439));
#1443=DIRECTION('',(0.,-1.,0.));
#1444=DIRECTION('',(1.,0.,0.));
#1445=DIRECTION('',(0.,-1.,0.));
#1446=DIRECTION('',(0.,0.,-1.));
#1447=DIRECTION('',(1.,0.,-7.51430849740808E-16));
#1448=DIRECTION('',(0.5,0.,0.866025403784439));
#1449=DIRECTION('',(-0.5,0.,0.866025403784439));
#1450=DIRECTION('',(-1.,0.,0.));
#1451=DIRECTION('',(-7.51430849740808E-16,0.,-1.));
#1452=DIRECTION('',(-1.,0.,7.51430849740808E-16));
#1453=DIRECTION('',(1.,0.,0.));
#1454=DIRECTION('',(0.,-1.,0.));
#1455=DIRECTION('',(0.866025403784438,0.,-0.5));
#1456=DIRECTION('',(-0.5,0.,-0.866025403784439));
#1457=DIRECTION('',(0.866025403784439,0.,0.5));
#1458=DIRECTION('',(0.5,0.,-0.866025403784439));
#1459=DIRECTION('',(0.,-1.,0.));
#1460=DIRECTION('',(0.,0.,1.));
#1461=DIRECTION('',(1.,0.,0.));
#1462=DIRECTION('',(0.,-1.,0.));
#1463=DIRECTION('',(1.,0.,0.));
#1464=DIRECTION('',(0.,-1.,0.));
#1465=DIRECTION('',(0.,0.,-1.));
#1466=CARTESIAN_POINT('',(0.,0.,0.));
#1467=CARTESIAN_POINT('',(0.0961110779176843,-0.058898,-0.00688821262626728));
#1468=CARTESIAN_POINT('',(0.09568,-0.0932905,-0.00652933988802087));
#1469=CARTESIAN_POINT('',(0.09478,-0.0932905,-0.00578008911183459));
#1470=CARTESIAN_POINT('',(0.09568,-0.1339305,-0.00652933988802087));
#1471=CARTESIAN_POINT('',(0.09478,-0.1339305,-0.00578008911183459));
#1472=CARTESIAN_POINT('',(0.0962805079236911,-0.0649,-0.00702926325238927));
#1473=CARTESIAN_POINT('',(0.0962805079236911,-0.0649,-0.00702926325238927));
#1474=CARTESIAN_POINT('',(0.0962805079236911,-0.0619,-0.00702926325238927));
#1475=CARTESIAN_POINT('',(0.0949581289618455,-0.0649,-0.00592838162619464));
#1476=CARTESIAN_POINT('',(0.09363575,-0.0649,-0.0048275));
#1477=CARTESIAN_POINT('',(0.09363575,-0.058898,-0.0048275));
#1478=CARTESIAN_POINT('',(0.09363575,-0.1358,-0.0048275));
#1479=CARTESIAN_POINT('',(0.0961110779176843,-0.1358,-0.00688821262626728));
#1480=CARTESIAN_POINT('',(0.0985864058353687,-0.1358,-0.00894892525253456));
#1481=CARTESIAN_POINT('',(0.0985864058353687,-0.058898,-0.00894892525253456));
#1482=CARTESIAN_POINT('',(0.0985864058353687,-0.0619,-0.00894892525253455));
#1483=CARTESIAN_POINT('',(0.0961110779176843,-0.0619,-0.00688821262626729));
#1484=CARTESIAN_POINT('',(0.09363575,-0.058898,-0.00580338162619463));
#1485=CARTESIAN_POINT('',(0.09363575,-0.0649,-0.00580338162619463));
#1486=CARTESIAN_POINT('',(0.09363575,-0.0649,-0.00494913623346712));
#1487=CARTESIAN_POINT('',(0.09363575,-0.058898,-0.00494913623346712));
#1488=CARTESIAN_POINT('',(0.09363575,-0.0604,-0.00494913623346712));
#1489=CARTESIAN_POINT('',(0.09363575,-0.0604,-0.00580338162619463));
#1490=CARTESIAN_POINT('',(0.09363575,-0.0604,-0.00460939027131143));
#1491=CARTESIAN_POINT('',(0.09363575,-0.058898,-0.00460939027131143));
#1492=CARTESIAN_POINT('',(0.09363575,-0.0619,-0.00460939027131143));
#1493=CARTESIAN_POINT('',(0.09363575,-0.0619,-0.00330338162619462));
#1494=CARTESIAN_POINT('',(0.09363575,-0.0619,-0.00177926325238925));
#1495=CARTESIAN_POINT('',(0.09363575,-0.0619,-0.00177926325238925));
#1496=CARTESIAN_POINT('',(0.09363575,-0.0589,-0.00177926325238925));
#1497=CARTESIAN_POINT('',(0.09363575,-0.0589,-0.00580338162619463));
#1498=CARTESIAN_POINT('',(0.09363575,-0.0589,-0.00677926325238925));
#1499=CARTESIAN_POINT('',(0.09363575,-0.058898,-0.00677926325238925));
#1500=CARTESIAN_POINT('',(0.09363575,-0.1358,-0.00677926325238925));
#1501=CARTESIAN_POINT('',(0.09363575,-0.1358,-0.00580338162619463));
#1502=CARTESIAN_POINT('',(0.09863575,-0.0619,-0.00690812921389706));
#1503=CARTESIAN_POINT('',(0.09863575,-0.0604,-0.00477926325238926));
#1504=CARTESIAN_POINT('',(0.09863575,-0.0604,-0.00494913623346708));
#1505=CARTESIAN_POINT('',(0.09863575,-0.0604,-0.00460939027131143));
#1506=CARTESIAN_POINT('',(0.09863575,-0.0604,-0.00494913623346708));
#1507=CARTESIAN_POINT('',(0.09863575,-0.0619,-0.00494913623346708));
#1508=CARTESIAN_POINT('',(0.09863575,-0.0619,-0.00690812921389706));
#1509=CARTESIAN_POINT('',(0.09863575,-0.0619,-0.00898875842779412));
#1510=CARTESIAN_POINT('',(0.09863575,-0.0619,-0.00898875842779413));
#1511=CARTESIAN_POINT('',(0.09863575,-0.0589,-0.00898875842779412));
#1512=CARTESIAN_POINT('',(0.09863575,-0.0589,-0.00690812921389706));
#1513=CARTESIAN_POINT('',(0.09863575,-0.0589,-0.00177926325238925));
#1514=CARTESIAN_POINT('',(0.09863575,-0.0619,-0.00177926325238925));
#1515=CARTESIAN_POINT('',(0.09863575,-0.0619,-0.00177926325238925));
#1516=CARTESIAN_POINT('',(0.09863575,-0.0619,-0.00690812921389706));
#1517=CARTESIAN_POINT('',(0.09863575,-0.0619,-0.00460939027131143));
#1518=CARTESIAN_POINT('',(0.09863575,-0.0604,-0.00460939027131143));
#1519=CARTESIAN_POINT('',(0.10506075,-0.0619,-0.00858931109300696));
#1520=CARTESIAN_POINT('',(0.0968576480146839,-0.0619,-0.00702926325238927));
#1521=CARTESIAN_POINT('',(0.0974347881056767,-0.0619,-0.00702926325238927));
#1522=CARTESIAN_POINT('',(0.0999299999999645,-0.0619,-0.0073350000000446));
#1523=CARTESIAN_POINT('',(0.0980352690528383,-0.0619,-0.00598919974292817));
#1524=CARTESIAN_POINT('',(0.10506075,-0.0619,-0.00858931109300696));
#1525=CARTESIAN_POINT('',(0.0942362309471617,-0.0619,-0.00356932676185033));
#1526=CARTESIAN_POINT('',(0.0948367118943234,-0.0619,-0.00252926325238925));
#1527=CARTESIAN_POINT('',(0.09613575,-0.0619,-0.00252926325238925));
#1528=CARTESIAN_POINT('',(0.0974347881056767,-0.0619,-0.00252926325238925));
#1529=CARTESIAN_POINT('',(0.0980352690528383,-0.0619,-0.00356932676185034));
#1530=CARTESIAN_POINT('',(0.09613575,-0.0619,-0.00177926325238925));
#1531=CARTESIAN_POINT('',(0.10506075,-0.1338,-0.0101134294668123));
#1532=CARTESIAN_POINT('',(0.11248575,-0.1338,-0.00849571926551946));
#1533=CARTESIAN_POINT('',(0.11248575,-0.1338,-0.0103208983848623));
#1534=CARTESIAN_POINT('',(0.11248575,-0.1338,-0.0107064385310389));
#1535=CARTESIAN_POINT('',(0.110539663323237,-0.1338,-0.00695017738477519));
#1536=CARTESIAN_POINT('',(0.112787044770624,-0.1338,-0.0108427562356372));
#1537=CARTESIAN_POINT('',(0.10643,-0.1338,-0.0244922218262989));
#1538=CARTESIAN_POINT('',(0.10506075,-0.1338,-0.0101134294668123));
#1539=CARTESIAN_POINT('',(0.10643,-0.1338,-0.0244922218262989));
#1540=CARTESIAN_POINT('',(0.11648575,-0.1338,-0.013285));
#1541=CARTESIAN_POINT('',(0.114100093328667,-0.1338,-0.011535));
#1542=CARTESIAN_POINT('',(0.10506075,-0.1338,-0.011535));
#1543=CARTESIAN_POINT('',(0.115784788105677,-0.1338,-0.011535));
#1544=CARTESIAN_POINT('',(0.113719336676763,-0.1338,-0.0151124668154436));
#1545=CARTESIAN_POINT('',(0.11648575,-0.1338,-0.0103208983848623));
#1546=CARTESIAN_POINT('',(0.11648575,-0.1338,-0.009785));
#1547=CARTESIAN_POINT('',(0.10506075,-0.0619,-0.00858931109300696));
#1548=CARTESIAN_POINT('',(0.10643,-0.0619,-0.024492221826299));
#1549=CARTESIAN_POINT('',(0.11248575,-0.0619,-0.0107064385310389));
#1550=CARTESIAN_POINT('',(0.112787044770624,-0.0619,-0.0108427562356372));
#1551=CARTESIAN_POINT('',(0.109879700708192,-0.0619,-0.00580708860442113));
#1552=CARTESIAN_POINT('',(0.11248575,-0.0619,-0.0103208983848623));
#1553=CARTESIAN_POINT('',(0.11248575,-0.0619,-0.00849571926551946));
#1554=CARTESIAN_POINT('',(0.10506075,-0.0619,-0.00858931109300696));
#1555=CARTESIAN_POINT('',(0.114379299291808,-0.0619,-0.0139693780350895));
#1556=CARTESIAN_POINT('',(0.11648575,-0.0619,-0.0103208983848623));
#1557=CARTESIAN_POINT('',(0.115784788105677,-0.0619,-0.011535));
#1558=CARTESIAN_POINT('',(0.10506075,-0.0619,-0.011535));
#1559=CARTESIAN_POINT('',(0.114100093328667,-0.0619,-0.011535));
#1560=CARTESIAN_POINT('',(0.10643,-0.0619,-0.024492221826299));
#1561=CARTESIAN_POINT('',(0.11648575,-0.0619,-0.013285));
#1562=CARTESIAN_POINT('',(0.11648575,-0.0619,-0.009785));
#1563=CARTESIAN_POINT('',(0.10643,-0.058898,-0.0244922218262986));
#1564=CARTESIAN_POINT('',(0.114100093328667,-0.0604,-0.011535));
#1565=CARTESIAN_POINT('',(0.114100093328667,-0.0604,-0.011535));
#1566=CARTESIAN_POINT('',(0.10643,-0.0604,-0.0244922218262997));
#1567=CARTESIAN_POINT('',(0.112787044770624,-0.0604,-0.0108427562356372));
#1568=CARTESIAN_POINT('',(0.112787044770624,-0.0604,-0.0108427562356372));
#1569=CARTESIAN_POINT('',(0.11248575,-0.0619,-0.0107064385310389));
#1570=CARTESIAN_POINT('',(0.11248575,-0.0589,-0.0107064385310389));
#1571=CARTESIAN_POINT('',(0.10643,-0.0589,-0.0244922218262986));
#1572=CARTESIAN_POINT('',(0.10643,-0.0589,-0.009435));
#1573=CARTESIAN_POINT('',(0.10643,-0.058898,-0.009435));
#1574=CARTESIAN_POINT('',(0.10643,-0.1358,-0.009435));
#1575=CARTESIAN_POINT('',(0.10643,-0.1358,-0.0244922218262986));
#1576=CARTESIAN_POINT('',(0.11248575,-0.1358,-0.0107064385310389));
#1577=CARTESIAN_POINT('',(0.11248575,-0.1338,-0.0107064385310389));
#1578=CARTESIAN_POINT('',(0.112787044770624,-0.0604,-0.0108427562356372));
#1579=CARTESIAN_POINT('',(0.112787044770624,-0.13488,-0.0108427562356372));
#1580=CARTESIAN_POINT('',(0.10643,-0.13488,-0.0244922218262997));
#1581=CARTESIAN_POINT('',(0.114100093328667,-0.13488,-0.011535));
#1582=CARTESIAN_POINT('',(0.114100093328667,-0.0604,-0.011535));
#1583=CARTESIAN_POINT('',(0.11648575,-0.058898,-0.013285));
#1584=CARTESIAN_POINT('',(0.111612172364506,-0.133214627425429,-0.0103512261157142));
#1585=CARTESIAN_POINT('',(0.111923881573521,-0.133930485375769,-0.0104735516644936));
#1586=CARTESIAN_POINT('',(0.111612301341412,-0.134646431071494,-0.0103512633024943));
#1587=CARTESIAN_POINT('',(0.110928830129921,-0.134921281651325,-0.010115434301026));
#1588=CARTESIAN_POINT('',(0.110228395546156,-0.134651322205794,-0.00991845426311284));
#1589=CARTESIAN_POINT('',(0.109916147761095,-0.133930906225059,-0.00984471290156639));
#1590=CARTESIAN_POINT('',(0.110227014101406,-0.133210786569314,-0.0099180867792631));
#1591=CARTESIAN_POINT('',(0.110929257625816,-0.13293942686436,-0.0101155510778536));
#1592=CARTESIAN_POINT('',(0.111612172364506,-0.133214627425429,-0.0103512261157142));
#1593=CARTESIAN_POINT('',(0.111923881573521,-0.133930485375769,-0.0104735516644936));
#1594=CARTESIAN_POINT('',(0.111612301341412,-0.134646431071494,-0.0103512633024943));
#1595=CARTESIAN_POINT('',(0.11182,-0.1339305,-0.0104327826793638));
#1596=CARTESIAN_POINT('',(0.09993,-0.058898,-0.007335));
#1597=CARTESIAN_POINT('',(0.09993,-0.1358,-0.007335));
#1598=CARTESIAN_POINT('',(0.09993,-0.1358,-0.009435));
#1599=CARTESIAN_POINT('',(0.09993,-0.058898,-0.009435));
#1600=CARTESIAN_POINT('',(0.09993,-0.0589,-0.009435));
#1601=CARTESIAN_POINT('',(0.09993,-0.0589,-0.007335));
#1602=CARTESIAN_POINT('',(0.10318,-0.058898,-0.009435));
#1603=CARTESIAN_POINT('',(0.10318,-0.0589,-0.009435));
#1604=CARTESIAN_POINT('',(0.10318,-0.1358,-0.009435));
#1605=CARTESIAN_POINT('',(0.11648575,-0.058898,-0.0143421794668123));
#1606=CARTESIAN_POINT('',(0.11648575,-0.0604,-0.0143421794668123));
#1607=CARTESIAN_POINT('',(0.11648575,-0.0604,-0.0103208983848623));
#1608=CARTESIAN_POINT('',(0.11648575,-0.0604,-0.00824910161513782));
#1609=CARTESIAN_POINT('',(0.11648575,-0.058898,-0.0103208983848623));
#1610=CARTESIAN_POINT('',(0.11648575,-0.058898,-0.0103208983848623));
#1611=CARTESIAN_POINT('',(0.11648575,-0.13488,-0.0103208983848623));
#1612=CARTESIAN_POINT('',(0.11648575,-0.13488,-0.0143421794668123));
#1613=CARTESIAN_POINT('',(0.11648575,-0.13488,-0.00824910161513782));
#1614=CARTESIAN_POINT('',(0.11648575,-0.058898,-0.00824910161513783));
#1615=CARTESIAN_POINT('',(0.11648575,-0.1338,-0.00824910161513784));
#1616=CARTESIAN_POINT('',(0.11648575,-0.1338,-0.009785));
#1617=CARTESIAN_POINT('',(0.11648575,-0.1338,-0.006285));
#1618=CARTESIAN_POINT('',(0.11648575,-0.1338,-0.006285));
#1619=CARTESIAN_POINT('',(0.11648575,-0.1358,-0.006285));
#1620=CARTESIAN_POINT('',(0.11648575,-0.1358,-0.0143421794668123));
#1621=CARTESIAN_POINT('',(0.11648575,-0.1358,-0.0153993589336246));
#1622=CARTESIAN_POINT('',(0.11648575,-0.058898,-0.0153993589336246));
#1623=CARTESIAN_POINT('',(0.11648575,-0.0589,-0.0153993589336246));
#1624=CARTESIAN_POINT('',(0.11648575,-0.0589,-0.0143421794668123));
#1625=CARTESIAN_POINT('',(0.11648575,-0.0589,-0.006285));
#1626=CARTESIAN_POINT('',(0.11648575,-0.0619,-0.006285));
#1627=CARTESIAN_POINT('',(0.11648575,-0.0619,-0.006285));
#1628=CARTESIAN_POINT('',(0.11648575,-0.0619,-0.009785));
#1629=CARTESIAN_POINT('',(0.11648575,-0.0619,-0.00824910161513784));
#1630=CARTESIAN_POINT('',(0.11648575,-0.058898,-0.00824910161513783));
#1631=CARTESIAN_POINT('',(0.10643,-0.058898,-0.0244922218262985));
#1632=CARTESIAN_POINT('',(0.111609168002216,-0.133212297789299,-0.0119590660701823));
#1633=CARTESIAN_POINT('',(0.111925390351598,-0.133930450221663,-0.0120992417707589));
#1634=CARTESIAN_POINT('',(0.111609270591393,-0.134648901324051,-0.0119590911587223));
#1635=CARTESIAN_POINT('',(0.110931020991703,-0.134919682530347,-0.0116956242395266));
#1636=CARTESIAN_POINT('',(0.110231887515601,-0.134655179028526,-0.0114749576494594));
#1637=CARTESIAN_POINT('',(0.109914444893087,-0.133931059984363,-0.0113910786834282));
#1638=CARTESIAN_POINT('',(0.110230333950496,-0.133206929941492,-0.0114744904564));
#1639=CARTESIAN_POINT('',(0.110931813232135,-0.13294099367054,-0.0116958803125043));
#1640=CARTESIAN_POINT('',(0.111609168002216,-0.133212297789299,-0.0119590660701823));
#1641=CARTESIAN_POINT('',(0.111925390351598,-0.133930450221663,-0.0120992417707589));
#1642=CARTESIAN_POINT('',(0.111609270591393,-0.134648901324051,-0.0119590911587223));
#1643=CARTESIAN_POINT('',(0.11182,-0.1339305,-0.0120525207186567));
#1644=CARTESIAN_POINT('',(0.10643,-0.058898,-0.010935));
#1645=CARTESIAN_POINT('',(0.10643,-0.0589,-0.010935));
#1646=CARTESIAN_POINT('',(0.10643,-0.1358,-0.010935));
#1647=CARTESIAN_POINT('',(0.10643,-0.0589,-0.0244922218262985));
#1648=CARTESIAN_POINT('',(0.10643,-0.1358,-0.0244922218262985));
#1649=CARTESIAN_POINT('',(0.10318,-0.058898,-0.010935));
#1650=CARTESIAN_POINT('',(0.09993,-0.058898,-0.010935));
#1651=CARTESIAN_POINT('',(0.09993,-0.0589,-0.010935));
#1652=CARTESIAN_POINT('',(0.09993,-0.1358,-0.010935));
#1653=CARTESIAN_POINT('',(0.10318,-0.0589,-0.010935));
#1654=CARTESIAN_POINT('',(0.10318,-0.1358,-0.010935));
#1655=CARTESIAN_POINT('',(0.09993,-0.058898,-0.007335));
#1656=CARTESIAN_POINT('',(0.09993,-0.0589,-0.007335));
#1657=CARTESIAN_POINT('',(0.0976266957177749,-0.0589,-0.010101729004345));
#1658=CARTESIAN_POINT('',(0.09993,-0.1358,-0.007335));
#1659=CARTESIAN_POINT('',(0.0976266957177749,-0.1358,-0.010101729004345));
#1660=CARTESIAN_POINT('',(0.0976266957177749,-0.058898,-0.010101729004345));
#1661=CARTESIAN_POINT('',(0.0956312228588874,-0.058898,-0.00844049612836711));
#1662=CARTESIAN_POINT('',(0.09568,-0.0932905,-0.00848110314041015));
#1663=CARTESIAN_POINT('',(0.09478,-0.0932905,-0.00773185236422387));
#1664=CARTESIAN_POINT('',(0.09568,-0.1339305,-0.00848110314041015));
#1665=CARTESIAN_POINT('',(0.09478,-0.1339305,-0.00773185236422387));
#1666=CARTESIAN_POINT('',(0.0956312228588874,-0.0589,-0.00844049612836711));
#1667=CARTESIAN_POINT('',(0.0956312228588874,-0.1358,-0.00844049612836711));
#1668=CARTESIAN_POINT('',(0.11663575,-0.1358,-0.0048275));
#1669=CARTESIAN_POINT('',(0.11448575,-0.1358,-0.009285));
#1670=CARTESIAN_POINT('',(0.11448575,-0.1358,-0.008285));
#1671=CARTESIAN_POINT('',(0.11448575,-0.1358,-0.006285));
#1672=CARTESIAN_POINT('',(0.11248575,-0.1358,-0.006285));
#1673=CARTESIAN_POINT('',(0.11248575,-0.1358,-0.00849571926551946));
#1674=CARTESIAN_POINT('',(0.11663575,-0.0589,-0.02));
#1675=CARTESIAN_POINT('',(0.09613575,-0.0589,-0.00477926325238926));
#1676=CARTESIAN_POINT('',(0.09613575,-0.0589,-0.00377926325238926));
#1677=CARTESIAN_POINT('',(0.11448575,-0.0589,-0.009285));
#1678=CARTESIAN_POINT('',(0.11448575,-0.0589,-0.008285));
#1679=CARTESIAN_POINT('',(0.11248575,-0.0589,-0.00849571926551946));
#1680=CARTESIAN_POINT('',(0.11248575,-0.0589,-0.006285));
#1681=CARTESIAN_POINT('',(0.11448575,-0.0589,-0.006285));
#1682=CARTESIAN_POINT('',(0.09613575,-0.0589,-0.00177926325238925));
#1683=CARTESIAN_POINT('',(0.09568,-0.1339305,-0.0971471500857298));
#1684=CARTESIAN_POINT('',(0.09568,-0.0932905,-0.0971471500857298));
#1685=CARTESIAN_POINT('',(0.11092,-0.1339305,-0.0971471500857298));
#1686=CARTESIAN_POINT('',(0.11448575,-0.1338,-0.006285));
#1687=CARTESIAN_POINT('',(0.11448575,-0.1338,-0.006285));
#1688=CARTESIAN_POINT('',(0.11248575,-0.1338,-0.006285));
#1689=CARTESIAN_POINT('',(0.11248575,-0.1338,-0.006285));
#1690=CARTESIAN_POINT('',(0.11248575,-0.1338,-0.00849571926551946));
#1691=CARTESIAN_POINT('',(0.11248575,-0.1338,-0.0082491016151378));
#1692=CARTESIAN_POINT('',(0.11248575,-0.13488,-0.0082491016151378));
#1693=CARTESIAN_POINT('',(0.11248575,-0.1338,-0.00824910161513781));
#1694=CARTESIAN_POINT('',(0.11248575,-0.13488,-0.00849571926551946));
#1695=CARTESIAN_POINT('',(0.11248575,-0.13488,-0.0103208983848623));
#1696=CARTESIAN_POINT('',(0.11248575,-0.1338,-0.0103208983848623));
#1697=CARTESIAN_POINT('',(0.11248575,-0.1338,-0.00849571926551946));
#1698=CARTESIAN_POINT('',(0.10506075,-0.1338,-0.0101134294668123));
#1699=CARTESIAN_POINT('',(0.10506075,-0.1338,-0.00703499999999988));
#1700=CARTESIAN_POINT('',(0.115784788105677,-0.1338,-0.007035));
#1701=CARTESIAN_POINT('',(0.113186711894323,-0.1338,-0.007035));
#1702=CARTESIAN_POINT('',(0.109822222359733,-0.1338,-0.0128624668154435));
#1703=CARTESIAN_POINT('',(0.114436777640267,-0.1338,-0.00470017738477522));
#1704=CARTESIAN_POINT('',(0.09613575,-0.0619,-0.00177926325238925));
#1705=CARTESIAN_POINT('',(0.11448575,-0.0619,-0.006285));
#1706=CARTESIAN_POINT('',(0.11248575,-0.0619,-0.006285));
#1707=CARTESIAN_POINT('',(0.11248575,-0.0619,-0.006285));
#1708=CARTESIAN_POINT('',(0.11448575,-0.0619,-0.006285));
#1709=CARTESIAN_POINT('',(0.11248575,-0.0619,-0.00849571926551946));
#1710=CARTESIAN_POINT('',(0.11248575,-0.0619,-0.0082491016151378));
#1711=CARTESIAN_POINT('',(0.11248575,-0.0619,-0.00824910161513782));
#1712=CARTESIAN_POINT('',(0.11248575,-0.0604,-0.0082491016151378));
#1713=CARTESIAN_POINT('',(0.11248575,-0.0619,-0.00849571926551946));
#1714=CARTESIAN_POINT('',(0.11248575,-0.0619,-0.0103208983848623));
#1715=CARTESIAN_POINT('',(0.11248575,-0.0604,-0.0103208983848623));
#1716=CARTESIAN_POINT('',(0.11248575,-0.0604,-0.00849571926551946));
#1717=CARTESIAN_POINT('',(0.10506075,-0.0619,-0.00858931109300696));
#1718=CARTESIAN_POINT('',(0.110482184974778,-0.0619,-0.0117193780350894));
#1719=CARTESIAN_POINT('',(0.113186711894323,-0.0619,-0.007035));
#1720=CARTESIAN_POINT('',(0.10506075,-0.0619,-0.00703499999999988));
#1721=CARTESIAN_POINT('',(0.115784788105677,-0.0619,-0.007035));
#1722=CARTESIAN_POINT('',(0.113776815025222,-0.0619,-0.00355708860442117));
#1723=CARTESIAN_POINT('',(0.112636397385312,-0.0604,-0.0105818273102498));
#1724=CARTESIAN_POINT('',(0.112636397385312,-0.0604,-0.0105818273102498));
#1725=CARTESIAN_POINT('',(0.112836230947162,-0.0604,-0.00764205080756893));
#1726=CARTESIAN_POINT('',(0.112836230947162,-0.0604,-0.00764205080756893));
#1727=CARTESIAN_POINT('',(0.113186711894323,-0.0604,-0.007035));
#1728=CARTESIAN_POINT('',(0.113186711894323,-0.0604,-0.007035));
#1729=CARTESIAN_POINT('',(0.11448575,-0.0604,-0.007035));
#1730=CARTESIAN_POINT('',(0.11448575,-0.0604,-0.007035));
#1731=CARTESIAN_POINT('',(0.115784788105677,-0.0604,-0.007035));
#1732=CARTESIAN_POINT('',(0.115784788105677,-0.0604,-0.007035));
#1733=CARTESIAN_POINT('',(0.116135269052838,-0.0604,-0.00764205080756893));
#1734=CARTESIAN_POINT('',(0.116135269052838,-0.0604,-0.00764205080756893));
#1735=CARTESIAN_POINT('',(0.116135269052838,-0.0604,-0.0109279491924312));
#1736=CARTESIAN_POINT('',(0.116135269052838,-0.0604,-0.0109279491924312));
#1737=CARTESIAN_POINT('',(0.115784788105677,-0.0604,-0.011535));
#1738=CARTESIAN_POINT('',(0.115784788105677,-0.0604,-0.011535));
#1739=CARTESIAN_POINT('',(0.114942440717172,-0.0604,-0.011535));
#1740=CARTESIAN_POINT('',(0.114942440717172,-0.0604,-0.011535));
#1741=CARTESIAN_POINT('',(0.11448575,-0.0604,-0.009785));
#1742=CARTESIAN_POINT('',(0.11448575,-0.0604,-0.009285));
#1743=CARTESIAN_POINT('',(0.11448575,-0.0604,-0.010285));
#1744=CARTESIAN_POINT('',(0.11448575,-0.13488,-0.009785));
#1745=CARTESIAN_POINT('',(0.11448575,-0.13488,-0.009285));
#1746=CARTESIAN_POINT('',(0.11448575,-0.13488,-0.010285));
#1747=CARTESIAN_POINT('',(0.116135269052838,-0.13488,-0.0109279491924312));
#1748=CARTESIAN_POINT('',(0.115784788105677,-0.13488,-0.011535));
#1749=CARTESIAN_POINT('',(0.114942440717172,-0.13488,-0.011535));
#1750=CARTESIAN_POINT('',(0.112636397385312,-0.13488,-0.0105818273102498));
#1751=CARTESIAN_POINT('',(0.112836230947162,-0.13488,-0.00764205080756893));
#1752=CARTESIAN_POINT('',(0.113186711894323,-0.13488,-0.007035));
#1753=CARTESIAN_POINT('',(0.11448575,-0.13488,-0.007035));
#1754=CARTESIAN_POINT('',(0.115784788105677,-0.13488,-0.007035));
#1755=CARTESIAN_POINT('',(0.116135269052838,-0.13488,-0.00764205080756893));
#1756=CARTESIAN_POINT('',(0.112836230947162,-0.0604,-0.00764205080756893));
#1757=CARTESIAN_POINT('',(0.113186711894323,-0.0604,-0.007035));
#1758=CARTESIAN_POINT('',(0.112636397385312,-0.0604,-0.0105818273102498));
#1759=CARTESIAN_POINT('',(0.114942440717172,-0.0604,-0.011535));
#1760=CARTESIAN_POINT('',(0.115784788105677,-0.0604,-0.011535));
#1761=CARTESIAN_POINT('',(0.116135269052838,-0.0604,-0.0109279491924312));
#1762=CARTESIAN_POINT('',(0.116135269052838,-0.0604,-0.00764205080756893));
#1763=CARTESIAN_POINT('',(0.115784788105677,-0.0604,-0.007035));
#1764=CARTESIAN_POINT('',(0.11448575,-0.0604,-0.007035));
#1765=CARTESIAN_POINT('',(0.11448575,-0.0569,-0.009285));
#1766=CARTESIAN_POINT('',(0.11448575,-0.0569,-0.009285));
#1767=CARTESIAN_POINT('',(0.0942362309471617,-0.0604,-0.00356932676185033));
#1768=CARTESIAN_POINT('',(0.0942362309471617,-0.0604,-0.00356932676185033));
#1769=CARTESIAN_POINT('',(0.0948367118943234,-0.0604,-0.00252926325238925));
#1770=CARTESIAN_POINT('',(0.0948367118943234,-0.0604,-0.00252926325238925));
#1771=CARTESIAN_POINT('',(0.094187192841485,-0.0604,-0.00590426325238927));
#1772=CARTESIAN_POINT('',(0.094187192841485,-0.0649,-0.00590426325238927));
#1773=CARTESIAN_POINT('',(0.0948367118943233,-0.0649,-0.00702926325238927));
#1774=CARTESIAN_POINT('',(0.0948367118943233,-0.0604,-0.00702926325238927));
#1775=CARTESIAN_POINT('',(0.0948367118943233,-0.0604,-0.00702926325238927));
#1776=CARTESIAN_POINT('',(0.094187192841485,-0.0604,-0.00590426325238927));
#1777=CARTESIAN_POINT('',(0.09613575,-0.0604,-0.00538463378226763));
#1778=CARTESIAN_POINT('',(0.09613575,-0.0604,-0.00477926325238926));
#1779=CARTESIAN_POINT('',(0.09613575,-0.0604,-0.00577926325238926));
#1780=CARTESIAN_POINT('',(0.0968576480146839,-0.0604,-0.00702926325238927));
#1781=CARTESIAN_POINT('',(0.0974347881056767,-0.0604,-0.00702926325238927));
#1782=CARTESIAN_POINT('',(0.0980352690528383,-0.0604,-0.00598919974292817));
#1783=CARTESIAN_POINT('',(0.0980352690528383,-0.0604,-0.00356932676185034));
#1784=CARTESIAN_POINT('',(0.0974347881056767,-0.0604,-0.00252926325238925));
#1785=CARTESIAN_POINT('',(0.09613575,-0.0604,-0.00252926325238925));
#1786=CARTESIAN_POINT('',(0.0968576480146839,-0.0604,-0.00702926325238927));
#1787=CARTESIAN_POINT('',(0.0955586099090072,-0.0649,-0.00702926325238927));
#1788=CARTESIAN_POINT('',(0.0974347881056767,-0.0604,-0.00702926325238927));
#1789=CARTESIAN_POINT('',(0.0980352690528383,-0.0604,-0.00598919974292817));
#1790=CARTESIAN_POINT('',(0.0980352690528383,-0.0604,-0.00356932676185034));
#1791=CARTESIAN_POINT('',(0.0974347881056767,-0.0604,-0.00252926325238925));
#1792=CARTESIAN_POINT('',(0.09613575,-0.0604,-0.00252926325238925));
#1793=CARTESIAN_POINT('',(0.09613575,-0.0649,-0.00538463378226763));
#1794=CARTESIAN_POINT('',(0.09613575,-0.0569,-0.00477926325238926));
#1795=MECHANICAL_DESIGN_GEOMETRIC_PRESENTATION_REPRESENTATION('',(#1092),
#1796);
#1796=(
GEOMETRIC_REPRESENTATION_CONTEXT(3)
GLOBAL_UNCERTAINTY_ASSIGNED_CONTEXT((#1797))
GLOBAL_UNIT_ASSIGNED_CONTEXT((#1800,#1799,#1798))
REPRESENTATION_CONTEXT('Part 2','TOP_LEVEL_ASSEMBLY_PART')
);
#1797=UNCERTAINTY_MEASURE_WITH_UNIT(LENGTH_MEASURE(2.E-5),#1800,
'DISTANCE_ACCURACY_VALUE','Maximum Tolerance applied to model');
#1798=(
NAMED_UNIT(*)
SI_UNIT($,.STERADIAN.)
SOLID_ANGLE_UNIT()
);
#1799=(
NAMED_UNIT(*)
PLANE_ANGLE_UNIT()
SI_UNIT($,.RADIAN.)
);
#1800=(
LENGTH_UNIT()
NAMED_UNIT(*)
SI_UNIT($,.METRE.)
);
#1801=PRODUCT_DEFINITION_SHAPE('','',#1802);
#1802=PRODUCT_DEFINITION('','',#1804,#1803);
#1803=PRODUCT_DEFINITION_CONTEXT('',#1810,'design');
#1804=PRODUCT_DEFINITION_FORMATION_WITH_SPECIFIED_SOURCE('','',#1806,
 .NOT_KNOWN.);
#1805=PRODUCT_RELATED_PRODUCT_CATEGORY('','',(#1806));
#1806=PRODUCT('Part 2','Part 2','Part 2',(#1808));
#1807=PRODUCT_CATEGORY('','');
#1808=PRODUCT_CONTEXT('',#1810,'mechanical');
#1809=APPLICATION_PROTOCOL_DEFINITION('international standard',
'ap242_managed_model_based_3d_engineering',2020,#1810);
#1810=APPLICATION_CONTEXT('managed model based 3d engineering');
ENDSEC;
END-ISO-10303-21;
